<svg width="211" height="29" viewBox="0 0 211 29" fill="none" xmlns="http://www.w3.org/2000/svg">
<path fill-rule="evenodd" clip-rule="evenodd" d="M98.4362 0.181742C98.5049 0.0750515 98.6202 0 98.7581 0C98.9719 0 99.1451 0.17046 99.1451 0.380653V26.7149H95.3024V11.1638L84.1289 26.2469C84.0744 26.311 83.9951 26.3539 83.9037 26.3541C83.8124 26.3539 83.7329 26.311 83.6783 26.2469L72.5049 11.1638V26.7149H68.6621V0.380653C68.6621 0.17046 68.8354 0 69.0491 0C69.1871 0 69.3026 0.0750515 69.3711 0.181742L83.9037 19.9463L98.4362 0.181742ZM56.1112 14.2244C56.1112 8.52957 51.5073 3.89673 45.8486 3.89673C40.1896 3.89673 35.5857 8.52957 35.5857 14.2244C35.5857 19.919 40.1896 24.5521 45.8486 24.5521C51.5073 24.5521 56.1112 19.919 56.1112 14.2244ZM31.7455 14.228C31.7455 6.3883 38.0606 0.0332031 45.8509 0.0332031C53.641 0.0332031 59.9563 6.3883 59.9563 14.228C59.9563 22.0674 53.641 28.4228 45.8509 28.4228C38.0606 28.4228 31.7455 22.0674 31.7455 14.228ZM122.118 0.867188H109.312V27.5821H113.155V18.0062H122.118C126.821 18.0062 130.633 14.1695 130.633 9.43655C130.633 4.70389 126.821 0.867188 122.118 0.867188ZM122.116 14.1396H113.153V4.73486H122.116C124.692 4.73486 126.788 6.8444 126.788 9.43711C126.788 12.0301 124.692 14.1396 122.116 14.1396ZM14.1054 24.5523C17.4035 24.5523 20.341 22.9769 22.2196 20.5365L24.9793 23.2661C22.392 26.4136 18.4814 28.4194 14.1054 28.4194C6.31508 28.4194 0 22.0643 0 14.2246C0 6.38513 6.31508 0.0297852 14.1054 0.0297852C18.4814 0.0297852 22.3917 2.03557 24.9791 5.18308L22.2196 7.9124C20.3408 5.47225 17.4032 3.8969 14.1054 3.8969C8.44643 3.8969 3.84276 8.52998 3.84276 14.2246C3.84276 19.9194 8.44643 24.5523 14.1054 24.5523ZM174.785 28.0574C170.341 28.0574 167.236 25.5822 165.414 23.506L168.123 20.8461C168.803 21.7312 171.082 24.2788 174.785 24.2788C178.247 24.2788 180.664 22.5259 180.664 20.0156C180.664 17.8693 179.213 16.4254 176.227 15.6018L172.988 14.8621C166.062 13.154 166.062 8.97887 166.062 7.6066C166.062 3.29114 169.525 0.391602 174.679 0.391602C178.062 0.391602 180.942 1.68759 183.481 4.35363L180.772 7.01747C180.078 6.28609 177.799 4.17067 174.679 4.17067C171.645 4.17067 169.905 5.42275 169.905 7.6066C169.905 8.25778 170.15 10.4345 173.312 11.1173L176.257 11.7847C181.653 13.0596 184.507 15.9059 184.507 20.0156C184.507 24.5999 180.328 28.0574 174.785 28.0574ZM191.286 23.506C193.108 25.5822 196.213 28.0574 200.657 28.0574C206.2 28.0574 210.379 24.5999 210.379 20.0156C210.379 15.9059 207.525 13.0596 202.129 11.7847L199.184 11.1173C196.022 10.4345 195.777 8.25778 195.777 7.6066C195.777 5.42275 197.517 4.17067 200.551 4.17067C203.671 4.17067 205.95 6.28609 206.645 7.01747L209.353 4.35363C206.813 1.68759 203.934 0.391602 200.551 0.391602C195.397 0.391602 191.934 3.29114 191.934 7.6066C191.934 8.97887 191.934 13.154 198.86 14.8621L202.099 15.6018C205.085 16.4254 206.537 17.8693 206.537 20.0156C206.537 22.5259 204.119 24.2788 200.657 24.2788C196.954 24.2788 194.675 21.7312 193.995 20.8461L191.286 23.506ZM51.908 10.8639L42.5111 20.3204L39.7938 17.5859L49.1908 8.12939L51.908 10.8639ZM146.29 0.634277C146.446 0.634277 146.579 0.726252 146.64 0.85747L160.651 27.5849H156.304L152.716 20.7375H139.863L136.275 27.5849H131.928L145.939 0.85747C146 0.726252 146.133 0.634277 146.29 0.634277ZM146.287 8.47119L141.887 16.8686H150.688L146.287 8.47119Z" fill="black"/>
</svg>
