<svg width="139" height="48" viewBox="0 0 139 48" fill="none" xmlns="http://www.w3.org/2000/svg">
<path fill-rule="evenodd" clip-rule="evenodd" d="M19.8109 0.362009C9.87531 2.09213 2.0737 10.2126 0.646402 20.2584C0.60945 20.491 0.547862 20.7235 0.486275 20.9561C0.455481 21.0723 0.424687 21.1886 0.396973 21.3049V26.0488C0.409498 26.0803 0.422731 26.1118 0.436031 26.1435L0.436037 26.1435L0.436057 26.1436L0.436059 26.1436C0.48161 26.2521 0.527954 26.3625 0.549402 26.4813C0.66026 26.979 0.755721 27.4813 0.851182 27.9835C1.0421 28.9881 1.23302 29.9927 1.54712 30.9601C5.31628 42.5826 16.9286 49.3497 28.8181 46.8521C41.4836 44.1872 49.8534 31.5322 46.8741 18.4307C44.0472 6.02677 32.2408 -1.8146 19.8109 0.362009ZM31.7143 35.7598C30.2103 35.7299 28.7134 35.7356 27.2134 35.7413C26.6127 35.7436 26.0115 35.7459 25.4092 35.7459H16.3328C15.8478 35.7459 15.3489 35.7179 14.8916 35.5924C13.298 35.1598 12.1895 33.7227 12.1756 32.0484C12.1617 26.6348 12.1617 21.2212 12.1756 15.8076C12.1895 13.7147 13.7692 12.1101 15.8755 12.0822C17.9021 12.0613 19.9287 12.0639 21.9553 12.0665L21.9575 12.0665C22.6323 12.0674 23.3071 12.0683 23.9819 12.0683H31.8806C33.3771 12.0683 34.4996 12.724 35.234 14.0216C35.5943 14.6355 35.719 15.3192 35.719 16.0308C35.719 17.339 35.7181 18.6472 35.7173 19.9551V19.9558V19.9564V19.9571C35.7147 23.8798 35.7121 27.8006 35.7329 31.7135C35.7329 34.0018 34.07 35.8017 31.7143 35.7598ZM79.9904 8.10571C80.5724 8.11966 80.7526 8.35686 80.7803 8.94287V9.41726V34.3924V34.8808C80.7664 35.5226 80.5863 35.7319 79.9627 35.7458C78.7571 35.7738 77.5654 35.7738 76.3598 35.7458C75.7778 35.7319 75.5838 35.5226 75.5561 34.9226C75.5472 34.7171 75.5497 34.5115 75.5527 34.2693L75.5527 34.2683C75.5544 34.1326 75.5561 33.9855 75.5561 33.8204C71.981 35.9551 68.3365 36.3737 64.5535 34.8529C62.1978 33.9181 60.3686 32.3135 59.0383 30.1648C56.35 25.8395 56.7242 20.2863 59.9668 16.3657C61.8791 14.0495 64.3179 12.6543 67.2695 12.2078C70.1795 11.7613 72.8955 12.3752 75.5423 14.0216V13.0868C75.5423 12.6351 75.5407 12.185 75.5392 11.7355C75.5361 10.8378 75.533 9.94229 75.5423 9.04054C75.5561 8.35686 75.764 8.11966 76.3876 8.10571C77.5931 8.07781 78.7849 8.07781 79.9904 8.10571ZM62.4888 23.8722C62.4749 27.5138 65.4404 30.5136 69.0432 30.4997C72.6323 30.4857 75.5423 27.5278 75.5561 23.9001C75.5561 20.2724 72.6461 17.3284 69.0432 17.3144C65.4819 17.3005 62.5026 20.2724 62.4888 23.8722ZM137.944 12.0683C137.32 12.0775 136.696 12.0745 136.055 12.0714C135.729 12.0698 135.399 12.0683 135.062 12.0683V11.2869C135.062 11.0311 135.063 10.7753 135.065 10.5195C135.068 10.0079 135.071 9.49632 135.062 8.98473C135.048 8.35686 134.84 8.10571 134.244 8.10571C133.039 8.07781 131.847 8.07781 130.641 8.10571C130.045 8.11966 129.838 8.35686 129.824 8.98473C129.815 9.54283 129.818 10.1009 129.821 10.659C129.822 10.9381 129.824 11.2171 129.824 11.4962C129.824 11.6155 129.806 11.7287 129.786 11.8558L129.786 11.8561V11.8563C129.775 11.9223 129.764 11.992 129.754 12.0683H128.951C128.706 12.0683 128.461 12.0667 128.214 12.0652H128.214C127.72 12.0621 127.224 12.0589 126.734 12.0683C126.11 12.0822 125.916 12.2496 125.916 12.8496C125.902 14.0774 125.902 15.3192 125.916 16.547C125.93 17.1052 126.11 17.2865 126.678 17.3005C127.073 17.3075 127.465 17.3075 127.856 17.3075C128.247 17.3075 128.639 17.3075 129.034 17.3144C129.188 17.3144 129.337 17.3251 129.496 17.3365L129.496 17.3365C129.595 17.3436 129.699 17.351 129.81 17.3563V18.2632V29.9834V34.8668C129.81 35.5505 129.99 35.7598 130.669 35.7738C131.847 35.7877 133.025 35.7877 134.203 35.7738C134.826 35.7598 135.02 35.5505 135.048 34.9226C135.057 34.8012 135.054 34.6735 135.051 34.548C135.049 34.486 135.048 34.4245 135.048 34.3645V18.2493V17.3703L135.208 17.3623C135.425 17.3515 135.606 17.3423 135.796 17.3423C136.037 17.3423 136.276 17.3408 136.515 17.3392C136.99 17.3361 137.464 17.3331 137.944 17.3423C138.332 17.3563 138.679 17.2865 138.956 17.0214V12.4171C138.679 12.1241 138.332 12.0543 137.944 12.0683ZM115.426 12.8636C115.399 12.2916 115.232 12.0962 114.678 12.0823C113.459 12.0683 112.225 12.0683 111.006 12.0823C110.424 12.0962 110.244 12.2916 110.202 12.8915C110.193 13.0957 110.196 13.2998 110.199 13.5471V13.5474V13.5478V13.5483V13.5488V13.5493V13.5498V13.5504C110.2 13.6909 110.202 13.8454 110.202 14.0217C107.5 12.3334 104.729 11.7335 101.763 12.2218C98.7839 12.7101 96.3589 14.1612 94.4605 16.5192C91.1625 20.6492 91.0377 26.5511 94.1418 30.8485C95.6938 32.9833 97.7169 34.4762 100.239 35.2157C103.703 36.2482 106.987 35.7459 110.147 33.8065C109.967 35.3134 109.412 36.4993 108.484 37.5318C105.962 40.3224 101.694 40.42 99.0333 37.7272C98.5761 37.2667 98.1049 37.0435 97.4536 37.0575C96.7218 37.0826 95.9849 37.0775 95.2491 37.0725C94.7589 37.0692 94.2691 37.0658 93.7815 37.0714C92.9085 37.0714 92.7145 37.4063 93.0886 38.2155C95.8185 44.1733 103.107 46.7406 108.858 43.671C113.14 41.3828 115.357 37.6993 115.399 32.8159C115.438 28.2447 115.429 23.6666 115.42 19.0913C115.416 17.1309 115.413 15.1711 115.413 13.2124C115.426 13.0869 115.426 12.9754 115.426 12.8638V12.8636ZM103.703 30.4997C100.1 30.5276 97.121 27.5278 97.1349 23.8862C97.1349 20.2864 100.1 17.3005 103.676 17.3145C107.278 17.3285 110.188 20.2585 110.202 23.8862C110.202 27.5139 107.292 30.4718 103.703 30.4997ZM123.934 12.7517C123.878 12.2773 123.712 12.082 123.213 12.082C121.938 12.068 120.677 12.068 119.402 12.082C118.931 12.0959 118.751 12.2913 118.723 12.7796C118.714 12.901 118.717 13.0287 118.72 13.1543L118.72 13.1549C118.722 13.2167 118.723 13.278 118.723 13.3377V23.8719V34.6155C118.723 35.6479 118.848 35.7596 119.887 35.7735H122.797C123.809 35.7735 123.948 35.634 123.948 34.5875V34.448V13.3935C123.948 13.1703 123.948 12.961 123.934 12.7517ZM88.5695 12.082C89.0406 12.082 89.2207 12.2773 89.2623 12.7657C89.2832 12.9021 89.2805 13.0465 89.2779 13.1869C89.277 13.2331 89.2762 13.2788 89.2762 13.3238V34.448V34.7271C89.2623 35.5921 89.1237 35.7456 88.2646 35.7456C87.1976 35.7596 86.1444 35.7596 85.0774 35.7456C84.2044 35.7317 84.0659 35.5921 84.0659 34.7271V23.858V13.3377C84.0659 13.2778 84.0643 13.2163 84.0628 13.1543C84.0597 13.0287 84.0566 12.901 84.0659 12.7796C84.1074 12.2913 84.2737 12.0959 84.7587 12.082C86.0336 12.068 87.2946 12.068 88.5695 12.082ZM19.6319 28.728C21.1839 29.6349 22.8884 29.886 24.6621 29.2024C26.4358 28.5326 27.5444 27.1932 28.1403 25.3794H29.5814C28.9717 27.7652 27.6553 29.4814 25.4658 30.4162C23.0824 31.4348 20.8098 31.1697 18.5788 29.7047C18.7926 29.5053 18.9883 29.3242 19.184 29.1431L19.1841 29.1431C19.3308 29.0073 19.4776 28.8715 19.6319 28.728ZM20.2739 21.0762L20.2743 21.0762C20.5261 21.0558 20.7686 21.0362 21.0018 21.0119V19.7004C20.6092 19.6771 20.2647 19.6539 19.9202 19.6306L19.9196 19.6306L19.713 19.6167C19.6967 19.3363 19.6754 19.0754 19.6551 18.8254L19.6551 18.8252L19.6551 18.825C19.641 18.6521 19.6274 18.4844 19.616 18.3191H18.3135C18.2937 18.6579 18.2739 18.9611 18.2541 19.2643L18.2303 19.6306C18.0022 19.6446 17.7878 19.6585 17.5735 19.6724L17.5721 19.6725C17.3573 19.6864 17.1425 19.7004 16.9139 19.7143V21.0398C17.0801 21.0503 17.2405 21.0608 17.4008 21.0712C17.6683 21.0887 17.9358 21.1061 18.2303 21.1236C18.2466 21.4109 18.2677 21.6789 18.288 21.9362L18.288 21.9364C18.3022 22.1163 18.3159 22.2908 18.3273 22.463H19.6438C19.657 21.9974 19.6828 21.5951 19.7092 21.1838L19.713 21.1236C19.9049 21.106 20.0918 21.0909 20.2739 21.0762ZM30.8948 21.0118H26.7793V19.7142H30.8948V21.0118Z" fill="black"/>
</svg>
