<svg width="160" height="65" viewBox="0 0 160 65" fill="none" xmlns="http://www.w3.org/2000/svg">
<path d="M8.65895 29.4184C8.65895 29.4184 9.12488 19.3523 20.6729 19.3478C32.0688 19.3452 31.9596 29.4184 31.9596 29.4184H8.65895ZM20.9795 13.7076C0.903934 13.7032 -0.0951547 29.4639 0.00703651 33.4977C0.00703651 33.4977 -0.975193 51.8862 20.2701 51.8862C38.5252 51.8862 39.4238 40.2669 39.4238 40.2669L30.9159 40.2837C30.9159 40.2837 29.6084 46.3463 20.5227 46.1784C8.84306 45.9614 8.3897 35.1467 8.3897 35.1467H40.5281C40.5281 35.1467 43.2019 13.7111 20.9795 13.7076V13.7076Z" fill="black"/>
<path d="M61.0373 46.1222C48.8361 46.1222 48.6057 33.5509 48.6057 33.5509C48.6057 33.5509 47.8137 20.0188 60.7992 19.6819C73.4549 19.3538 73.3606 33.175 73.3606 33.175C73.3606 33.175 73.2397 45.9683 61.0373 46.1222ZM62.7823 13.8052C52.6886 13.7482 48.4546 19.8588 48.4546 19.8588V0H40.1805L40.3173 42.3229C40.3173 42.3229 40.2684 47.2652 39.9627 50.5322H48.004L48.3417 45.7648C48.3417 45.7648 52.117 51.8753 62.8313 51.8753C73.0005 51.8753 81.8978 45.2039 82.1237 33.0353C82.3486 20.866 72.8779 13.8602 62.7823 13.8052V13.8052Z" fill="black"/>
<path d="M97.9118 46.3015C97.9118 46.3015 89.9106 46.7496 89.4348 40.2853C88.9273 33.3862 101.913 33.9108 101.913 33.9108L110.759 33.9018C110.759 33.9018 112.463 46.4918 97.9118 46.3015V46.3015ZM119.17 42.2472C119.19 36.7412 119.352 31.8254 119.17 28.3577C118.958 24.3362 119.558 14.5224 102.132 13.8058C102.132 13.8058 84.5504 12.5053 83.4711 24.9103H92.0163C92.0163 24.9103 92.6796 19.4461 101.349 19.6096C109.555 19.7645 110.722 23.3405 110.679 28.2777C110.679 28.2777 103.866 28.2971 101.519 28.3088C97.2886 28.33 82.488 28.7976 81.1057 37.7909C79.4621 48.4847 88.7024 51.9301 96.188 51.8875C103.675 51.8459 108.056 49.9382 111.229 45.9307L111.567 50.5791L119.339 50.5372C119.339 50.5372 119.147 47.7531 119.17 42.2472V42.2472Z" fill="black"/>
<path d="M114.302 15.3674H124.237L137.75 42.2663L151.293 15.3674H160L135.265 64.1243H125.859L132.939 50.417L114.302 15.3674Z" fill="black"/>
</svg>
