<svg width="118" height="41" viewBox="0 0 118 41" fill="none" xmlns="http://www.w3.org/2000/svg">
<path fill-rule="evenodd" clip-rule="evenodd" d="M40.5427 15.1072L44.9619 27.2185L49.396 15.1072H53.3391L46.6284 31.7191H43.2359L39.3226 22.0749V36.8477C39.3226 38.8213 37.7304 40.4212 35.7663 40.4212H3.61163C1.64753 40.4212 0.0554199 38.8213 0.0554199 36.8327V4.52105C0.0554199 2.54736 1.64753 0.947479 3.61163 0.947479H35.7812C37.7453 0.947479 39.3374 2.54736 39.3374 4.52105V15.1072H40.5427ZM15.5748 10.9953C15.5748 9.64965 14.4886 8.61795 13.1792 8.61795C11.8847 8.61795 10.7836 9.64965 10.7836 10.9953C10.7836 12.341 11.8698 13.3727 13.1792 13.3727C14.4737 13.3727 15.5748 12.341 15.5748 10.9953ZM25.6334 27.9063C25.6334 29.8949 26.794 31.3453 29.2342 31.3453C31.3174 31.3453 32.9839 29.9996 33.8915 26.7699L32.344 26.1718C31.5703 28.3399 30.9007 28.7286 30.3651 28.7286C29.8294 28.7286 29.5467 28.3698 29.5467 27.667C29.5467 27.3381 29.6211 26.9942 29.7252 26.5606L30.8561 22.4786C31.1388 21.5217 31.243 20.6694 31.243 19.8919C31.243 16.8416 29.3979 15.2567 27.1808 15.2567C25.0977 15.2567 22.9848 17.1407 21.9284 19.1293L22.7021 15.5707H16.661L15.8129 18.7107H18.64L16.8991 25.7083C15.545 28.7585 13.0304 28.8183 12.7179 28.7436C12.1971 28.624 11.8698 28.4296 11.8698 27.7567C11.8698 27.353 11.9442 26.7998 12.1227 26.1269L14.7713 15.5707H8.06062L7.21248 18.7107H10.0098L8.20941 26.097C8.0755 26.6951 8.0011 27.3381 8.0011 27.8764C8.0011 29.9697 9.13195 31.3602 11.5276 31.3602C13.5214 31.3602 15.1284 30.164 16.289 28.2502L15.5748 31.106H19.5328L21.7944 22.0001C22.3599 19.6975 23.461 18.5013 25.1126 18.5013C26.4071 18.5013 27.2255 19.3237 27.2255 20.6694C27.2255 21.0582 27.1808 21.4768 27.0469 21.9403L25.8863 26.1269C25.7078 26.74 25.6334 27.3381 25.6334 27.9063ZM55.2139 15.1072H58.9784V31.5995H55.2139V15.1072ZM111.384 14.7633C108.84 14.7633 107.307 16.109 106.251 17.664V15.1072H102.486V31.5994H106.251V22.2992C106.251 19.7424 107.768 18.2023 109.956 18.2023C112.188 18.2023 113.467 19.6676 113.467 22.2244V31.5845H117.232V21.0881C117.232 17.2603 115.089 14.7633 111.384 14.7633ZM82.7414 23.4056C82.7414 18.6658 86.4762 14.7633 91.5055 14.7633C96.5348 14.7633 100.24 18.606 100.24 23.3458C100.24 28.0558 96.505 31.9583 91.446 31.9583C86.4316 31.9583 82.7414 28.1156 82.7414 23.4056ZM86.506 23.3458C86.506 26.2765 88.5891 28.6838 91.5055 28.6838C94.5409 28.6838 96.4753 26.3213 96.4753 23.4056C96.4753 20.475 94.3921 18.0677 91.446 18.0677C88.4254 18.0677 86.506 20.4451 86.506 23.3458ZM68.7156 21.7752C68.6658 21.7591 68.6162 21.743 68.5667 21.727C66.7982 21.1539 65.242 20.6497 65.242 19.533V19.4732C65.242 18.5013 66.0753 17.8135 67.5483 17.8135C68.2626 17.8135 69.0512 17.978 69.8844 18.2621C69.8844 18.2621 69.8993 18.2621 69.9142 18.277L69.9143 18.2771C69.9887 18.3069 70.063 18.3368 70.1225 18.3518C70.7177 18.5461 72.3247 18.8003 73.6787 16.6771C71.9229 15.5408 69.691 14.8231 67.6376 14.8231C64.379 14.8231 61.7899 16.722 61.7899 19.847V19.9068C61.7899 23.0617 64.498 24.0635 66.9234 24.7513C67.0653 24.7955 67.2063 24.8389 67.3456 24.8817C69.0908 25.4181 70.5838 25.877 70.5838 27.0539V27.1137C70.5838 28.2053 69.6463 28.893 68.0394 28.893C66.968 28.893 65.7925 28.609 64.6171 28.0557C64.2748 27.9062 62.519 27.3081 61.0311 29.4612C63.0696 31.0611 65.6437 31.8984 67.9501 31.8984C71.3724 31.8984 74.0358 30.1789 74.0358 26.71V26.6652C74.0358 23.6897 71.3426 22.5982 68.947 21.8506C68.8696 21.8253 68.7925 21.8002 68.7156 21.7752ZM76.5206 15.1072H80.2851V31.5995H76.5206V15.1072Z" fill="black"/>
</svg>
