<svg width="119" height="48" viewBox="0 0 119 48" fill="none" xmlns="http://www.w3.org/2000/svg">
<path fill-rule="evenodd" clip-rule="evenodd" d="M50.7986 42.2673C65.6901 38.3993 70.7277 38.6796 77.6476 39.8568C82.2977 40.6416 83.9031 41.8188 84.0692 41.6506C84.2906 41.4825 83.8477 40.5856 82.4084 39.4083C80.9137 38.119 77.0386 35.3722 70.7277 35.3722C56.5559 35.3722 46.3699 42.2673 38.1768 42.2673C34.6892 42.2673 32.0874 41.3143 30.1498 39.1841C27.4372 36.2131 27.1051 30.9997 27.714 24.0486C28.1015 19.2277 29.3748 12.669 29.2641 12.4447C28.4337 11.2115 27.1604 10.5388 26.2193 10.4827C25.389 10.4827 24.005 13.678 22.2335 17.7702C20.462 21.9184 18.5798 28.0848 18.5798 28.0848C18.5798 27.9166 19.9638 12.5569 20.1299 10.5948C20.2406 8.74495 19.2442 7.67986 18.3584 7.28746C17.3066 6.839 16.5316 6.67083 15.978 6.67083C15.4798 6.67083 15.1476 6.839 14.9262 7.2314C14.4833 7.96015 9.88853 23.3199 9.88853 23.3199C9.88853 23.2638 10.9957 17.7141 11.3832 12.0523C11.4939 10.4267 11.2171 9.24947 10.5528 8.52072C10.11 8.07226 9.50102 7.79198 8.726 7.79198C8.33849 7.79198 7.95097 7.84803 7.56346 7.96015C4.68481 8.74495 1.64008 10.9872 0.366832 12.3887C0.0900388 12.669 -0.0760373 13.3417 0.0346801 13.6219C0.0900388 13.7901 0.256115 13.7901 0.47755 13.678C0.588267 13.6219 0.754343 13.5098 0.975778 13.3977C2.13831 12.725 4.24194 11.4918 5.57055 11.4918C6.06878 11.4918 6.34557 11.6599 6.56701 11.9963C7.45275 13.2856 6.40093 19.508 4.57409 31.9527C3.90979 36.4373 2.96869 41.8188 3.46692 42.4915C3.79907 42.94 4.85089 43.1642 5.73663 43.1642C6.67772 43.1642 7.17595 42.94 7.17595 42.7718C7.23131 41.9309 8.28313 36.6615 10.0546 29.8225C12.7118 19.6761 15.1476 14.8552 15.203 14.7992L15.4244 14.4067V14.8552C15.4244 15.0234 15.0922 32.4572 15.0369 35.3722C14.9815 36.6055 15.1476 37.2782 15.4798 37.6145C15.7012 37.8387 15.978 37.8948 16.4209 37.8948C16.753 37.8948 17.0852 37.8387 17.528 37.7827C18.4691 37.6706 18.5798 36.2131 18.5798 36.2131C20.9049 25.1698 23.8389 20.0685 23.8943 20.0125L24.1711 19.508L24.0604 20.0685C24.0604 20.1246 23.2853 24.8334 23.0639 28.1969C22.7317 33.8026 23.7836 37.7827 26.2747 40.4734C28.8212 43.2203 32.1427 44.5096 36.6268 44.5096C43.1591 44.4535 46.5914 43.3324 50.7986 42.2673ZM108.427 27.9166C114.129 24.441 117.617 22.3669 118.115 19.9564C118.281 19.1156 118.392 17.0414 115.734 16.4809C115.125 16.3688 114.516 16.2566 113.908 16.2566C105.825 16.2566 104.164 28.1969 104.164 28.1969C102.947 29.1498 100.677 30.7195 100.566 30.7755C100.843 29.5983 101.618 25.8425 102.061 23.7123C102.116 23.3199 102.061 22.9275 101.784 22.6472C101.452 22.2548 100.954 22.0306 100.566 22.0306H100.511C99.5696 22.0306 99.2928 22.6472 99.1268 23.3759C97.6874 29.1498 96.2481 31.3361 94.5873 31.1679C94.3105 31.1679 94.0891 30.9997 93.8677 30.7195C93.2587 29.9347 92.9819 28.1408 93.2587 26.1227C94.0891 19.508 97.0785 15.4158 99.1821 15.584C100.179 15.6961 100.345 16.7051 100.345 17.3217C100.4 18.2187 100.234 18.9474 100.068 19.4519C99.9571 20.0125 99.8464 20.4049 100.068 20.6291C100.234 20.8534 100.455 20.8534 100.677 20.8534C101.064 20.8534 101.563 20.5731 102.005 20.1246C102.448 19.6761 103.168 18.6671 103.057 16.9293C103.002 15.1355 101.618 14.0143 99.3482 13.7901C99.016 13.7341 98.6285 13.7341 98.2964 13.7341C95.4731 13.7341 91.4319 14.8552 89.6051 24.3289C89.6051 24.385 88.3872 29.6544 86.3389 29.9346C86.0067 29.9907 85.6746 29.8225 85.3978 29.5422C84.9549 29.0377 84.8442 28.0848 85.0103 26.9636C85.2317 25.4501 85.5085 24.3289 86.1175 21.8063C86.2282 21.3018 86.1175 20.9655 85.9514 20.7973C85.6746 20.4049 85.1764 20.2928 84.8442 20.2928H84.7888C83.7924 20.3488 83.4602 20.9655 83.2388 21.6942C81.7995 27.1318 79.9726 29.8225 78.4226 29.6544C78.1458 29.6544 77.9244 29.4862 77.7029 29.2059C77.094 28.4211 76.9833 26.7394 77.2601 24.7213C78.2565 18.3308 81.578 13.7901 83.6263 13.9583C84.4013 14.0143 84.7335 14.5189 84.7335 15.64C84.7335 16.5369 84.5121 17.2657 84.4013 17.7702C84.2353 18.3308 84.1799 18.7232 84.346 18.9474C84.4567 19.1156 84.6228 19.1716 84.8996 19.1716H84.9549C85.8407 19.1716 87.4461 17.7702 87.5014 15.1916C87.5568 13.3977 86.4496 12.5008 84.0692 12.2766C83.737 12.2205 83.4049 12.2205 83.1281 12.2205C78.4226 12.2205 75.3225 15.8082 73.6618 23.2078C73.6618 23.2638 72.3885 29.0377 70.0634 28.8135C69.6759 28.7574 69.2884 28.5893 69.0116 28.1969C68.292 27.2439 68.1259 25.4501 68.5134 23.2638C69.0116 20.4609 69.9527 15.8642 71.4474 9.13735C71.4474 9.13735 74.9904 9.24947 80.9137 9.58581C83.1834 9.69793 87.7782 10.2024 88.6086 10.2585C89.1622 10.3146 89.6604 10.2024 89.8265 9.64187C89.8819 9.41764 89.8819 9.19341 89.7158 8.85707C89.3836 8.29649 86.7818 7.67986 81.9656 7.06323C77.6476 6.50266 73.3296 6.0542 72.2778 5.99814L72.3885 5.38151C72.9975 2.2423 73.551 1.06509 72.9974 0.392402C72.776 0.112115 72.3885 -3.34128e-09 71.8903 -3.34128e-09H71.3367C69.5652 -3.34128e-09 69.3991 0.560574 68.4027 4.82094L68.1812 5.77391C66.908 5.71785 58.9917 5.38151 52.4594 5.43757C52.1826 5.43757 51.9611 5.54968 51.7951 5.71785C51.4076 6.11026 51.4629 6.839 51.5183 7.28746C51.5736 8.01621 51.7951 8.63284 52.0165 8.91313C52.3487 9.30553 53.2344 9.36158 54.4523 9.36158C61.3168 9.19341 66.0776 9.19341 67.4062 9.19341C66.9634 11.2115 64.5829 20.2367 64.5276 24.7213C64.4168 25.1137 62.9775 29.7665 60.5417 29.8225C60.0435 29.8225 59.7114 29.7104 59.4346 29.4862C59.0471 29.0938 58.881 28.309 58.881 26.9636C58.881 22.3669 60.7078 17.4899 61.5382 15.4158C61.815 14.687 61.8704 14.4628 61.8704 14.3507C61.8704 14.0143 61.5382 13.3417 60.9846 12.8371C60.5971 12.4447 59.9328 11.9402 59.1024 11.9402H59.0471C57.3309 11.9963 54.0648 19.2277 52.3487 23.6002C53.179 20.1246 54.5076 14.4067 54.5076 14.1825V14.1265C54.5076 13.9583 54.563 13.678 54.3416 13.4538C54.0648 13.1174 53.4005 12.9493 52.2379 12.9493C52.1272 12.9493 51.9611 12.9493 51.8504 12.9493C51.5183 12.9493 51.1861 13.5098 50.245 15.0234C49.1932 16.7051 47.6432 19.1716 45.8163 20.9655C45.3181 17.0975 42.993 14.9673 39.3394 15.0794C34.1356 15.2476 30.8141 20.0685 30.7588 23.3199C30.7588 25.1137 31.3123 26.347 32.5302 27.0757C32.1427 28.1969 31.9767 29.318 31.9767 30.4392C31.9767 31.9527 32.3642 33.0739 33.0838 33.8587C33.8588 34.6995 35.1321 35.0359 36.7929 35.0359C41.6091 35.0919 45.3735 29.9347 45.927 24.1607C47.5878 22.7593 48.8611 21.1336 49.5254 20.1807C49.1378 22.8154 48.086 30.3831 48.086 31.4482C48.086 31.7285 48.1968 32.0088 48.3628 32.1769C48.695 32.5133 49.1932 32.5693 49.6914 32.5693C49.8575 32.5693 50.245 32.5693 50.245 32.5693C51.02 32.5693 51.4629 30.9997 52.4594 28.4772C53.2344 26.5151 54.4523 23.8805 56.0023 21.2458C55.6702 22.5911 55.2273 24.7213 55.2273 26.6273C55.2273 28.4772 55.7255 30.0468 56.722 31.0558C57.6077 31.9527 58.8256 32.4012 60.3757 32.2891C63.199 32.1769 64.6383 29.6544 65.1365 28.5332C65.524 29.5422 66.6312 31.4482 69.4545 31.3921C72.001 31.3361 73.2189 29.8225 73.7171 28.9256C73.9385 29.9907 74.8243 31.9527 78.0351 32.0648C80.4709 32.1769 81.8548 30.6073 82.3531 29.8225C82.6299 30.6073 83.4602 32.233 85.3424 32.4012C87.7229 32.6254 89.1068 30.8876 89.7158 29.9907C90.1587 31.4482 90.9337 33.2981 94.3659 33.4663C95.916 33.5223 97.2999 32.4012 97.2999 32.4012L97.1338 33.0739C97.1338 33.0739 96.4142 33.5223 95.2516 34.139C91.4319 36.2131 88.055 37.7827 87.2246 41.3143C86.3389 45.0701 88.7193 47.3685 92.1516 47.3685C94.3105 47.3685 97.5214 46.1913 98.7946 40.4734C99.625 36.6615 100.123 33.6905 100.234 33.1299C101.009 32.6254 103.445 30.9437 103.832 30.6634C103.888 33.3541 105.493 35.8207 108.648 35.8207C114.018 35.8207 117.838 29.1498 118.004 27.3C118.059 26.8515 117.838 26.7394 117.727 26.7394C117.118 26.5712 116.731 27.356 115.9 28.4211C115.347 29.0938 112.634 32.9618 109.479 32.9618C107.818 32.9618 107.873 31.0558 108.261 28.309C108.427 28.1408 108.427 28.0287 108.427 27.9166ZM108.981 25.5061C110.309 20.2928 113.409 18.2187 114.461 18.2187C114.516 18.2187 114.516 18.2187 114.572 18.2187C114.793 18.2747 114.904 18.3868 114.959 18.6671C115.125 19.7322 113.299 22.5911 108.981 25.5061ZM96.8017 35.0919C96.5249 36.2131 95.8606 39.072 95.5284 40.3613C94.6981 43.4445 93.4248 44.7899 92.0408 44.7899C90.4354 44.7899 89.9926 42.996 90.3801 41.5385C90.9337 39.4083 92.4284 37.8387 96.8017 35.0919ZM35.9071 28.1408C35.9071 28.1408 36.7375 28.2529 37.3464 28.1969C38.8411 28.1408 40.059 27.8045 41.443 27.1318C40.7787 30.1028 39.3394 33.5223 37.2911 33.5223C36.0178 33.5223 35.575 31.5043 35.575 30.8316C35.575 29.9907 35.6857 29.0938 35.9071 28.1408ZM36.5714 26.0667C37.2357 24.385 38.1768 22.8714 38.6751 22.1427C39.0072 21.5821 39.1733 21.4139 39.1733 21.3018C39.1733 20.9655 39.0626 20.7412 38.8411 20.6291C38.2875 20.2367 35.9071 21.1897 34.0249 24.385C33.8035 23.9926 33.6928 23.488 33.6928 22.9275C33.6928 20.3488 36.1839 17.602 38.5643 17.602C39.2286 17.602 39.9483 17.8823 40.5019 18.4429C41.443 19.3959 41.9412 21.0215 41.9412 22.8154C41.9412 23.2638 41.9412 23.7683 41.8859 24.3289C40.2251 25.394 38.8411 26.1227 36.5714 26.0667Z" fill="black"/>
</svg>
