<svg width="114" height="46" viewBox="0 0 114 46" fill="none" xmlns="http://www.w3.org/2000/svg">
<g clip-path="url(#clip0)">
<path d="M44.7288 14.6175C45.828 13.9643 46.9917 13.6331 48.22 13.6331V20.524H46.3452C44.8951 20.524 43.8053 20.8 43.0849 21.3614C42.3646 21.9226 41.9951 22.8886 41.9951 24.2686V32.1993H35.5023V13.7987H41.9951V17.2396C42.7155 16.1447 43.6298 15.2707 44.7288 14.6175Z" fill="black"/>
<path d="M60.5867 14.4069C61.5379 14.9681 62.2491 15.7317 62.7108 16.7161V13.7996H69.1667V32.2001H62.7108V29.2837C62.2491 30.2681 61.5379 31.0409 60.5867 31.5929C59.6354 32.1541 58.5087 32.4301 57.2064 32.4301C55.7379 32.4301 54.408 32.0529 53.2257 31.2985C52.0436 30.5441 51.1108 29.4493 50.4274 28.0141C49.744 26.5788 49.4023 24.9044 49.4023 22.9814C49.4023 21.0586 49.744 19.3842 50.4274 17.9581C51.1108 16.5321 52.0436 15.4465 53.2257 14.6921C54.408 13.9376 55.7379 13.5604 57.2064 13.5604C58.4995 13.5696 59.6262 13.8456 60.5867 14.4069ZM56.8924 20.2122C56.2643 20.8838 55.9503 21.8038 55.9503 22.9814C55.9503 24.1868 56.2643 25.116 56.8924 25.7876C57.5204 26.4592 58.3331 26.7904 59.3491 26.7904C60.3188 26.7904 61.1131 26.45 61.7503 25.7692C62.3876 25.0884 62.7016 24.1592 62.7016 22.9814C62.7016 21.8222 62.3784 20.9022 61.7503 20.2214C61.1131 19.5406 60.3096 19.2002 59.3491 19.2002C58.3423 19.2094 57.5204 19.5406 56.8924 20.2122Z" fill="black"/>
<path d="M79.2055 7.92065V32.2002H72.7128V7.92065H79.2055Z" fill="black"/>
<path d="M89.2821 7.92065V32.2002H82.7894V7.92065H89.2821Z" fill="black"/>
<path d="M98.1107 13.7984L102.064 24.1027L105.721 13.7984H112.897L101.205 40.9945H94.0932L98.6094 31.4169L90.8977 13.7984H98.1107Z" fill="black"/>
<path d="M29.0279 1.39705C23.7358 -0.903022 18.5731 0.12741 14.0106 1.02904C9.84529 1.85706 6.25258 2.57468 2.78919 1.07504L0.2586 6.88962C5.54144 9.18968 10.7134 8.15925 15.2666 7.24842C18.2129 6.65961 20.8819 6.13519 23.4033 6.40201C22.5721 8.39846 21.7225 10.5421 20.8265 12.8882C19.9307 15.2159 18.9979 17.7275 17.9912 20.5245C16.6428 20.7177 15.322 20.9845 14.0198 21.2421C11.0552 21.8309 8.2475 22.3921 5.62456 22.0517L0 21.3341L2.30893 26.4954L11.9972 46L17.6403 43.0651L10.1593 28.3262C11.8956 28.133 13.595 27.7926 15.2666 27.4614C17.1139 27.0934 18.8686 26.7438 20.5679 26.6058L22.6183 26.4402L23.311 24.5081C24.567 20.9937 25.6937 17.9299 26.7652 15.1514C28.1597 11.5174 29.4342 8.38926 30.6718 5.57398L31.9464 2.66669L29.0279 1.39705Z" fill="black"/>
</g>
<defs>
<clipPath id="clip0">
<rect width="114" height="46" fill="white"/>
</clipPath>
</defs>
</svg>
