<svg width="181" height="32" viewBox="0 0 181 32" fill="none" xmlns="http://www.w3.org/2000/svg">
<path d="M15.9125 16.7777C18.3779 16.7777 20.3764 14.7803 20.3764 12.3164C20.3764 9.85245 18.3779 7.85504 15.9125 7.85504C13.4472 7.85504 11.4486 9.85245 11.4486 12.3164C11.4486 14.7803 13.4472 16.7777 15.9125 16.7777Z" fill="black"/>
<path d="M15.9125 31.4114C18.3779 31.4114 20.3764 29.414 20.3764 26.9501C20.3764 24.4861 18.3779 22.4887 15.9125 22.4887C13.4472 22.4887 11.4486 24.4861 11.4486 26.9501C11.4486 29.414 13.4472 31.4114 15.9125 31.4114Z" fill="black"/>
<path d="M4.46391 24.1815C6.92926 24.1815 8.92782 22.1841 8.92782 19.7201C8.92782 17.2562 6.92926 15.2588 4.46391 15.2588C1.99856 15.2588 0 17.2562 0 19.7201C0 22.1841 1.99856 24.1815 4.46391 24.1815Z" fill="black"/>
<path d="M77.8695 31.3809H72.1406C71.8836 31.3809 71.6758 31.1732 71.6758 30.9164V8.29631C71.6758 8.03945 71.8836 7.83178 72.1406 7.83178H76.3657C76.5753 7.83178 76.7576 7.97023 76.8141 8.17244L77.9898 11.3968C79.2292 9.25271 81.5186 7.2124 84.6191 7.2124C87.8144 7.2124 90.2897 8.73899 91.5765 11.3112C92.6191 9.26364 95.2803 7.2124 98.7144 7.2124C103.592 7.2124 107.298 10.8831 107.298 16.6033V30.9164C107.298 31.1732 107.09 31.3809 106.833 31.3809H101.104C100.847 31.3809 100.639 31.1732 100.639 30.9164V18.2246C100.639 15.3172 99.3031 13.5537 96.8716 13.5537C94.4874 13.5537 92.8652 15.5084 92.8178 18.6545V30.9164C92.8178 31.1732 92.61 31.3809 92.353 31.3809H86.6241C86.3671 31.3809 86.1593 31.1732 86.1593 30.9164V18.3211C86.1593 15.3172 84.8232 13.5537 82.4391 13.5537C79.9602 13.5537 78.3379 15.5558 78.3379 18.7966V30.9164C78.3343 31.1714 78.1265 31.3809 77.8695 31.3809Z" fill="#241F21"/>
<path d="M163.732 31.3806H158.014C157.67 31.3806 157.393 31.1019 157.393 30.7594V0.805192C157.393 0.360697 157.753 0 158.198 0H163.564C164.009 0 164.37 0.360697 164.37 0.805192L164.357 10.8355C165.788 8.54742 168.172 7.21211 171.322 7.21211C176.712 7.21211 180.002 10.8828 180.002 16.8416V30.7576C180.002 31.1019 179.723 31.3788 179.38 31.3788H173.661C173.316 31.3788 173.039 31.1001 173.039 30.7576V18.4138C173.039 15.3624 171.512 13.599 168.841 13.599C166.122 13.599 164.357 15.6484 164.357 18.8892V30.7558C164.355 31.1019 164.077 31.3806 163.732 31.3806Z" fill="#241F21"/>
<path d="M57.1416 12.5807C59.9559 12.588 62.0976 14.4042 62.3765 16.9309L51.8356 16.9036C52.1272 14.6665 54.3746 12.5734 57.1416 12.5807ZM57.4387 26.2143C54.5296 26.207 52.0069 24.1977 51.7754 21.4323L68.6741 21.476C68.9165 21.476 69.1188 21.2957 69.1389 21.0552C69.1662 20.7291 69.1881 20.2846 69.1899 19.7618C69.2082 12.373 64.3104 7.16475 57.2035 7.14653C50.2406 7.12831 44.9802 12.4058 44.962 19.5086C44.9419 26.8027 50.0802 31.9162 57.4259 31.9344C62.3856 31.9472 66.0676 29.8978 68.2439 25.7989C68.377 25.5475 68.2458 25.2342 67.9778 25.1431L62.9634 23.4489C62.7647 23.3815 62.5478 23.4617 62.4294 23.6347C61.343 25.2233 59.8648 26.2216 57.4387 26.2143Z" fill="#241F21"/>
<path d="M122.053 12.5807C124.867 12.588 127.009 14.4042 127.288 16.9309L116.747 16.9036C117.04 14.6665 119.288 12.5734 122.053 12.5807ZM122.352 26.2143C119.443 26.207 116.92 24.1977 116.688 21.4323L133.587 21.476C133.83 21.476 134.032 21.2957 134.052 21.0552C134.079 20.7291 134.101 20.2846 134.103 19.7618C134.121 12.373 129.224 7.16475 122.117 7.14653C115.154 7.12831 109.893 12.4058 109.875 19.5086C109.857 26.8027 114.993 31.9162 122.339 31.9344C127.299 31.9472 130.981 29.8978 133.157 25.7989C133.29 25.5475 133.161 25.2342 132.891 25.1431L127.877 23.4489C127.678 23.3815 127.461 23.4617 127.342 23.6347C126.256 25.2233 124.778 26.2216 122.352 26.2143Z" fill="#241F21"/>
<path d="M148.944 17.718C145.058 16.3098 142.319 16.2643 142.545 14.2094C142.647 13.2822 143.738 12.4187 145.563 12.5681C146.903 12.6756 147.962 13.4388 148.503 14.4244C148.616 14.6302 148.862 14.7213 149.085 14.6466L153.47 13.1383C153.798 13.0253 153.957 12.6555 153.82 12.3367C152.537 9.3382 149.415 7.21045 145.609 7.21045C140.219 7.21045 136.499 10.3565 136.499 14.8379C136.499 18.556 138.948 20.6692 143.224 21.5818C147.501 22.4963 148.62 23.2196 148.62 24.5148C148.62 25.7699 147.096 26.5478 145.435 26.5478C144.232 26.5478 143.093 25.7918 142.552 24.5366C142.453 24.3071 142.187 24.1996 141.95 24.2798L137.085 25.923C136.823 26.0122 136.677 26.3019 136.777 26.5587C138.161 30.1019 141.713 31.9983 145.61 31.9983C151.095 31.9983 154.914 28.967 154.914 24.247C154.914 21.2029 152.83 19.128 148.944 17.718Z" fill="#241F21"/>
<path d="M44.4606 13.7975C44.4606 14.1454 44.1489 14.4187 43.8081 14.3568C43.48 14.2985 43.0954 14.2675 42.6962 14.2675C38.8338 14.2675 36.5444 17.1276 36.5444 21.751V30.8687C36.5444 31.1255 36.3366 31.3332 36.0796 31.3332H30.0937C29.8367 31.3332 29.6289 31.1255 29.6289 30.8687V8.39797C29.6289 8.05914 29.9041 7.78406 30.2432 7.78406H34.6961C34.9568 7.78406 35.1883 7.94801 35.2758 8.19394L36.497 11.6461C37.7365 8.92809 40.2172 7.26123 43.2704 7.26123L43.9211 7.26487C44.22 7.2667 44.4624 7.50898 44.4624 7.80774V13.7975H44.4606Z" fill="#241F21"/>
</svg>
