<svg width="201" height="48" viewBox="0 0 201 48" fill="none" xmlns="http://www.w3.org/2000/svg">
<path d="M14.9235 5.30266L3.5474 10.4403C4.64832 12.8868 5.62691 15.0886 6.72783 17.2904C9.05199 16.3118 11.2538 15.3332 13.7003 14.2323C15.0459 19.8592 16.3914 25.3638 17.737 30.9907C18.7156 30.6238 19.5719 30.3791 20.4281 30.1345C24.0087 28.8948 27.8649 28.6829 31.5596 29.5229C32.6348 29.6564 33.6437 30.1142 34.4522 30.8353C35.2608 31.5564 35.8305 32.5066 36.0856 33.5596C36.3448 34.8709 36.0815 36.2317 35.3517 37.3516C36.5749 40.7767 35.107 43.7125 31.8043 45.5473C29.0323 46.9803 25.9899 47.8138 22.8746 47.9938V45.1804C26.1774 44.5687 29.6024 44.2018 32.0489 41.633C32.3399 41.2113 32.5859 40.7603 32.7829 40.2874C30.5981 41.1242 28.3478 41.7789 26.055 42.2446C23.9875 42.5298 21.8936 42.5709 19.8165 42.3669C19.1941 42.3271 18.5999 42.0932 18.1172 41.6983C17.6345 41.3034 17.2877 40.7672 17.1254 40.1651C17.0042 39.5077 17.0786 38.8292 17.3396 38.2138C17.6005 37.5984 18.0365 37.0732 18.5933 36.7033C20.3265 35.5817 22.2928 34.8705 24.3425 34.6238C26.7448 34.1954 29.2132 34.3209 31.5596 34.9908C31.2344 35.6886 30.7157 36.2785 30.0653 36.6905C29.4148 37.1024 28.6598 37.3191 27.8899 37.3149C25.7696 37.2803 23.6592 37.6114 21.6514 38.2935C21.1621 38.5382 20.5505 38.7828 19.9388 39.1498C21.2915 39.5289 22.71 39.6123 24.0979 39.3944C26.3898 39.2075 28.608 38.496 30.581 37.3149C31.2987 36.9212 31.9242 36.3791 32.4159 35.7247C32.6451 35.5044 32.8127 35.2279 32.902 34.9228C32.9913 34.6177 32.9993 34.2945 32.9251 33.9854C32.8509 33.6762 32.6971 33.3919 32.4791 33.1605C32.261 32.9292 31.9862 32.7589 31.682 32.6666C30.0573 31.9977 28.2913 31.7454 26.5443 31.9326C23.0177 32.1161 19.5828 33.1214 16.5138 34.8684C16.2384 35.0129 15.9521 35.1356 15.6575 35.2354C14.3119 29.4862 12.9664 23.8592 11.4985 17.9877C9.41896 19.0886 7.33945 20.0672 5.25994 21.1681C3.5474 17.4128 1.71254 13.4617 0 9.58401C5.11507 6.31178 10.6775 3.79838 16.5138 2.12223C16.7538 3.06808 17.195 3.95105 17.8072 4.71099C18.4193 5.47092 19.1881 6.08995 20.0612 6.5259C21.247 7.07469 22.5842 7.2041 23.8532 6.89288C26.789 6.15893 28.3792 3.95709 28.6239 0.165043C35.1237 -0.323364 41.6593 0.297101 47.9511 1.99991L45.3823 14.477C42.8135 14.11 40.367 13.8654 37.6758 13.4984C37.4312 18.7583 37.1865 23.8959 36.9419 29.0336C36.0856 28.4219 35.2294 27.8103 34.2508 27.0764C34.4954 21.6941 34.7401 16.1895 34.9847 10.5626C37.7982 10.8073 40.4893 10.9296 43.1804 11.1742C43.6697 8.85006 44.159 6.40358 44.6483 3.95709C40.2246 3.02539 35.7132 2.57425 31.1927 2.61153C30.0917 6.40358 27.8899 8.85006 23.9755 9.58401C20.4281 10.1956 17.37 8.72774 14.9235 5.30266V5.30266ZM196.33 17.9021V20.5932C195.107 20.2262 195.535 20.1039 195.658 20.1039C194.817 19.2851 193.795 18.6778 192.674 18.3319C191.553 17.9861 190.366 17.9117 189.211 18.1148C188.055 18.3179 186.965 18.7927 186.029 19.5001C185.093 20.2075 184.339 21.1272 183.829 22.1834C182.656 24.5763 182.378 27.31 183.046 29.8898C183.285 31.2513 183.899 32.5191 184.818 33.5511C185.738 34.5831 186.927 35.3384 188.252 35.7322C189.577 36.1261 190.986 36.1428 192.32 35.7807C193.654 35.4185 194.86 34.6917 195.804 33.6819C195.804 33.5596 195.107 33.4372 196.33 33.3149V35.2721C196.342 36.4239 195.91 37.536 195.125 38.3784C194.339 39.2208 193.26 39.7291 192.11 39.7981C190.881 40.0206 189.616 39.936 188.427 39.5519C187.239 39.1678 186.163 38.496 185.297 37.5963C184.563 38.5749 184.073 39.5534 183.413 40.4097L183.878 40.899C185.124 41.8275 186.548 42.4909 188.06 42.8486C189.573 43.2062 191.142 43.2504 192.673 42.9785C197.566 42.3669 200.012 39.6758 200.012 34.7828V17.9021H196.343H196.33ZM194.985 31.3577C194.251 31.98 193.354 32.3796 192.401 32.5096C191.447 32.6397 190.476 32.4946 189.602 32.0917C188.746 31.6899 188.025 31.0486 187.525 30.2453C187.026 29.442 186.77 28.5113 186.789 27.5657C186.704 26.7894 186.746 26.0046 186.911 25.2415C187.02 24.333 187.408 23.4806 188.022 22.8016C188.635 22.1226 189.444 21.6502 190.336 21.4495C191.313 21.2003 192.34 21.2286 193.302 21.5312C194.263 21.8337 195.122 22.3985 195.78 23.162C196.081 23.4575 196.274 23.8449 196.33 24.2629V26.9174C196.208 27.6462 196.208 28.3903 196.33 29.1192C196.34 29.5813 196.219 30.0369 195.981 30.433C195.743 30.8292 195.398 31.1498 194.985 31.3577V31.3577ZM137.125 22.795C136.752 21.7102 136.129 20.728 135.307 19.9274C134.485 19.1268 133.487 18.5301 132.392 18.1851C131.298 17.8402 130.138 17.7566 129.006 17.9411C127.873 18.1257 126.8 18.5731 125.872 19.2476C125.37 19.4669 124.913 19.778 124.526 20.1651C124.413 19.4163 124.372 18.6586 124.404 17.9021H120.489V42.3669H124.159V33.8042H124.281C124.409 33.7986 124.534 33.8386 124.635 33.9171C124.736 33.9955 124.806 34.1073 124.832 34.2323C125.697 35.1266 126.775 35.7861 127.966 36.149C129.156 36.5119 130.419 36.5663 131.636 36.307C132.853 36.0477 133.984 35.4833 134.923 34.6667C135.862 33.8502 136.577 32.8083 137.003 31.6391C138.205 28.8219 138.249 25.6444 137.125 22.795V22.795ZM133.578 29.1559C133.422 30.0655 133.003 30.9094 132.372 31.5833C131.742 32.2573 130.928 32.7317 130.031 32.9479C129.099 33.1382 128.134 33.0801 127.233 32.7795C126.331 32.4789 125.524 31.9464 124.893 31.2354C124.577 30.907 124.401 30.4681 124.404 30.0122C124.404 28.1773 124.281 26.2201 124.404 24.3852C124.425 23.8743 124.644 23.3918 125.015 23.0397C125.671 22.2969 126.536 21.7706 127.497 21.5303C128.458 21.2901 129.47 21.3472 130.398 21.6941C132.477 22.3057 133.333 23.8959 133.7 25.9755C133.814 26.4144 133.855 26.8688 133.823 27.321C133.786 27.9378 133.704 28.551 133.578 29.1559V29.1559ZM79.3884 26.5871C79.0214 23.162 77.6758 20.2262 74.4954 18.7583C72.5727 17.8664 70.3946 17.6906 68.3537 18.2625C66.3128 18.8344 64.5432 20.1164 63.3639 21.8776C60.9174 25.6696 61.5291 31.2599 64.7095 34.11C68.1346 37.1681 74.4954 37.2782 77.9205 34.2201C77.955 34.0689 78.0416 33.9347 78.1651 33.8409C77.5535 32.9846 77.0642 32.2507 76.4526 31.3944C73.8838 33.107 71.315 34.2079 68.6239 32.74C67.9242 32.3445 67.3203 31.7997 66.8551 31.1443C66.39 30.4889 66.075 29.7389 65.9327 28.9479H79.3884C79.454 28.1624 79.454 27.3727 79.3884 26.5871V26.5871ZM65.8104 25.2415C65.9031 24.0084 66.4593 22.8562 67.3671 22.0165C68.2748 21.1769 69.4668 20.712 70.7034 20.7155C71.3138 20.6992 71.9216 20.8034 72.4918 21.0221C73.062 21.2408 73.5835 21.5697 74.0265 21.99C74.4696 22.4103 74.8254 22.9138 75.0738 23.4717C75.3222 24.0296 75.4582 24.631 75.474 25.2415H65.8104ZM99.5719 26.7094C99.2049 23.0397 97.737 19.8592 94.0673 18.5137C92.9342 18.0745 91.7224 17.8746 90.5083 17.9265C89.2942 17.9784 88.1039 18.281 87.0124 18.8152C85.9209 19.3495 84.9518 20.1039 84.166 21.0309C83.3802 21.9579 82.7948 23.0375 82.4465 24.2018C80.8563 29.584 83.6697 34.8195 88.8073 36.0427C91.1926 36.5325 93.671 36.2718 95.9022 35.2966C96.7843 34.8495 97.6418 34.3554 98.471 33.8164C97.737 32.8378 97.2477 31.9816 96.6361 31.2476C93.3333 33.8164 90.3976 33.6941 88.5627 32.5932C87.9075 32.2022 87.3478 31.6698 86.9245 31.0349C86.5013 30.4001 86.2251 29.6787 86.1162 28.9235H99.5719C99.6365 28.1869 99.6365 27.446 99.5719 26.7094V26.7094ZM86.1162 25.2415C86.2507 23.981 86.853 22.8167 87.8043 21.9787C88.7555 21.1407 89.9864 20.69 91.2538 20.7155C91.8486 20.7139 92.4379 20.8299 92.9878 21.0567C93.5376 21.2836 94.0372 21.6169 94.4578 22.0375C94.8784 22.4581 95.2117 22.9577 95.4386 23.5076C95.6655 24.0574 95.7814 24.6467 95.7798 25.2415H86.1162ZM166.85 20.5932C168.056 19.2881 169.638 18.3903 171.376 18.0244C172.428 17.8592 173.495 17.8181 174.557 17.9021C175.768 18.029 176.881 18.6249 177.658 19.5622C178.435 20.4995 178.815 21.7038 178.716 22.9173C178.838 27.0764 178.716 31.2354 178.716 35.3944C178.717 35.5269 178.673 35.6559 178.593 35.7614H174.801V24.9969C174.801 22.1834 173.333 20.8378 170.398 21.3271C169.139 21.5027 167.999 22.1607 167.217 23.162C166.97 23.4751 166.841 23.8644 166.85 24.2629V35.6391H163.058V18.1467H166.85V20.5932V20.5932ZM116.208 20.4709C115.719 21.3271 115.229 22.1834 114.618 23.162C113.896 22.4507 113.033 21.8982 112.085 21.5401C111.137 21.182 110.125 21.0261 109.113 21.0825C108.274 21.1462 107.469 21.4428 106.789 21.9388C106.553 22.06 106.359 22.2494 106.232 22.4825C106.105 22.7155 106.052 22.9813 106.078 23.2453C106.105 23.5093 106.21 23.7592 106.38 23.9625C106.551 24.1658 106.778 24.3131 107.034 24.3852C107.995 24.7268 108.975 25.0127 109.969 25.2415C111.315 25.6085 112.661 25.9755 114.006 26.4648C114.797 26.8423 115.472 27.4254 115.961 28.1531C116.449 28.8808 116.733 29.7263 116.783 30.6014C116.833 31.4764 116.648 32.3489 116.245 33.1275C115.843 33.9061 115.238 34.5623 114.495 35.0274C111.193 37.107 104.954 36.4953 102.141 33.8042C102.031 33.703 101.947 33.5772 101.896 33.4372C102.385 32.581 102.997 31.7247 103.364 30.9907C104.919 31.726 106.511 32.3793 108.135 32.9479C109.105 33.1316 110.1 33.1316 111.07 32.9479C111.573 32.9642 112.062 32.78 112.429 32.4359C112.796 32.0917 113.011 31.6159 113.028 31.1131C113.044 30.6102 112.86 30.1215 112.515 29.7545C112.171 29.3874 111.696 29.1721 111.193 29.1559C109.969 28.7889 108.624 28.5443 107.278 28.1773L105.076 27.4433C101.284 25.8531 101.651 21.2048 104.22 19.2476C107.401 17.0458 113.395 17.5351 116.208 20.4709V20.4709ZM51.9878 21.6941H49.1743V18.269H51.9878V13.4617H55.9021V18.11H59.4495V21.5351H56.0245C56.0245 21.9021 55.9021 22.1467 55.9021 22.3914V31.0764C55.8943 31.3819 55.9665 31.6841 56.1118 31.953C56.2571 32.2219 56.4702 32.448 56.7301 32.6089C56.9899 32.7697 57.2874 32.8597 57.5928 32.8698C57.8983 32.8799 58.201 32.8099 58.471 32.6666C58.7464 32.5221 59.0327 32.3994 59.3272 32.2996C59.5719 33.2782 59.9388 34.1345 60.1835 35.1131C59.3829 35.6965 58.4538 36.0789 57.4745 36.2279C56.4952 36.3769 55.4944 36.2882 54.5566 35.9693C53.7943 35.749 53.1274 35.2802 52.662 34.6375C52.1966 33.9948 51.9593 33.215 51.9878 32.4219C51.8654 29.3638 51.9878 26.1834 51.8654 23.1253C51.9779 22.6446 52.0191 22.1501 51.9878 21.6574V21.6941ZM141.651 18.3547H145.443V20.8011C146.874 19.1379 148.888 18.087 151.07 17.8654V21.6574C150.011 21.5096 148.93 21.647 147.941 22.0555C146.952 22.464 146.09 23.1289 145.443 23.9816V35.847H141.651V18.3547ZM154.251 18.3914H158.043V35.8837H154.251V18.3914ZM158.532 13.743C158.532 14.3919 158.274 15.0142 157.816 15.473C157.357 15.9318 156.734 16.1895 156.086 16.1895C155.479 16.1599 154.905 15.9055 154.475 15.4759C154.046 15.0463 153.791 14.4722 153.761 13.8654C153.761 13.2165 154.019 12.5942 154.478 12.1354C154.937 11.6766 155.559 11.4189 156.208 11.4189C156.815 11.4485 157.389 11.7029 157.818 12.1325C158.248 12.5621 158.502 13.1362 158.532 13.743V13.743Z" fill="black"/>
</svg>
