<svg width="200" height="42" viewBox="0 0 200 42" fill="none" xmlns="http://www.w3.org/2000/svg">
<path d="M197.054 37.41C197.054 37.1186 196.825 36.9522 196.534 36.9522H195.764V37.8885H196.534C196.825 37.8679 197.054 37.7015 197.054 37.41ZM196.992 39.7406L196.326 38.5128H195.785V39.7406H195.036V36.3074H196.638C197.366 36.3074 197.783 36.7651 197.783 37.41C197.783 38.0136 197.408 38.3463 197.033 38.4297L197.803 39.7406H196.992ZM196.409 35.3292C194.911 35.3292 193.683 36.5571 193.683 38.055C193.683 39.5531 194.911 40.781 196.409 40.781C197.907 40.781 199.135 39.5531 199.135 38.055C199.093 36.5361 197.907 35.3292 196.409 35.3292ZM196.409 41.4052C194.557 41.4052 193.038 39.8862 193.038 38.0342C193.038 36.1823 194.557 34.6634 196.409 34.6634C198.261 34.6634 199.78 36.1823 199.78 38.0342C199.78 39.9069 198.261 41.4052 196.409 41.4052ZM175.373 38.7208L174.541 38.8873C174 39.3867 174.145 40.5519 174.79 40.8432C176.621 40.7391 178.931 40.677 182.78 40.677C186.547 40.677 188.939 40.7185 190.937 40.8432C191.582 40.6351 191.727 39.2826 191.186 38.8873L190.229 38.7208C188.544 38.4503 187.316 38.159 186.422 37.4308C184.799 36.1409 179.077 28.5047 177.932 26.715C177.578 26.2781 177.454 25.9454 177.454 25.7787C177.454 25.6122 177.516 25.3835 177.828 25.0296C178.744 24.2597 179.742 23.4068 182.177 21.7839C183.904 20.6187 185.298 20.0567 186.526 19.828L188.586 19.4325C189.043 18.9957 188.981 17.7473 188.336 17.4768C184.528 17.997 179.139 18.2675 176.08 18.2675H174.541C173.896 18.5171 173.812 19.7239 174.395 20.2233L176.018 20.4728C176.601 20.5146 177.246 20.7435 177.246 21.014C177.246 21.3677 176.933 21.9503 175.706 23.2404L172.98 26.0284C171.669 27.3184 170.317 27.5891 169.214 27.5891C168.506 27.5891 168.298 27.4225 168.298 26.7983V9.19546C168.298 5.65818 168.382 3.30697 168.506 0.997357C168.257 0.706071 167.778 0.602051 167.383 0.602051C164.075 1.82967 160.121 3.18213 157.458 3.72315C157 4.07686 157 5.07561 157.458 5.40849L158.561 5.97029C159.851 6.63616 159.851 7.26038 159.851 9.50757V34.1642C159.851 38.076 159.601 38.5338 157.229 38.7624L156.001 38.8665C155.481 39.1994 155.481 40.4894 156.064 40.8226C158.332 40.7186 160.995 40.6561 163.971 40.6561C166.967 40.6561 169.672 40.6975 171.752 40.8226C172.314 40.4894 172.314 39.1996 171.794 38.8665L170.754 38.7624C168.465 38.5128 168.215 38.076 168.215 34.1642V30.9181C168.215 29.8571 168.548 29.5866 168.985 29.5866C169.63 29.5866 170.15 29.8153 170.608 30.4189L175.248 36.4737C175.768 37.1397 176.351 38.0342 176.351 38.2841C176.413 38.5128 176.039 38.6168 175.373 38.7208V38.7208ZM149.988 22.3041C150.383 22.3041 150.966 22.3455 152.443 23.4275C153.275 24.1141 154.066 24.4472 154.961 24.4472C157.042 24.4472 159.123 23.3858 159.123 20.8059C159.123 18.6836 157.291 17.4976 155.544 17.4976C152.818 17.4976 150.945 19.3494 149.197 20.3066C148.677 20.2025 148.552 20.0361 148.552 19.6405C148.552 19.1413 148.698 18.3507 148.802 17.2271C148.552 16.8942 148.157 16.7069 147.658 16.7069C145.639 17.8513 141.166 19.3494 138.17 20.0985C137.732 20.4314 137.732 21.4302 138.17 21.7839L139.106 22.283C140.333 22.9489 140.333 23.6149 140.333 25.8827V34.3513C140.333 38.2631 140.084 38.7833 137.92 38.9499L136.692 39.0539C136.172 39.4075 136.172 40.677 136.755 41.0307C138.898 40.9056 141.748 40.864 144.412 40.864C147.449 40.864 150.05 40.9056 153.171 41.0307C153.754 40.677 153.754 39.4075 153.213 39.0539L151.132 38.9083C148.989 38.7418 148.719 38.2841 148.719 34.3513V25.7163C148.739 23.5525 149.072 22.3041 149.988 22.3041V22.3041ZM124.021 20.0777C127.703 20.0777 129.513 24.7799 129.597 30.2108C129.639 35.267 128.411 38.9083 124.707 38.9083C120.962 38.9083 118.819 34.5804 118.819 28.6919C118.819 22.5952 121.17 20.0777 124.021 20.0777V20.0777ZM124.021 41.4882C131.99 41.4882 138.918 37.618 138.918 29.42C138.918 21.5132 132.031 17.4768 124.395 17.4768C116.738 17.4768 109.414 21.9085 109.476 29.9193C109.559 37.6599 116.28 41.4882 124.021 41.4882V41.4882ZM83.2172 20.3482C84.4032 20.3482 85.4436 20.3898 86.3383 20.5563C87.6283 20.7849 88.7521 22.5952 88.7521 23.4691C88.7521 23.906 88.7521 24.4054 88.5647 25.1545C88.232 26.2781 86.0472 30.3149 85.1315 31.8338C84.0081 30.0442 81.4278 24.988 80.5333 23.0323C80.1585 22.2001 79.9504 21.5134 79.9504 21.1805C79.909 20.5563 81.1364 20.3482 83.2172 20.3482V20.3482ZM68.4856 20.3482C69.6094 20.6187 70.2336 20.8475 71.1489 22.4705C74.3325 28.3172 77.5162 34.7469 80.6163 41.0931C81.0116 41.4258 81.4486 41.4882 82.1144 41.4882C82.7594 41.4882 83.1964 41.4258 83.6126 41.0931C85.1109 38.3047 89.0019 30.8351 90.687 27.922C92.6221 31.5217 95.9929 38.055 97.3662 41.0931C97.7615 41.4258 98.1985 41.4882 98.8437 41.4882C99.4885 41.4882 99.9671 41.4258 100.342 41.0931C103.067 35.142 106.043 28.983 109.039 23.2404C110.08 21.1805 110.516 20.6187 112.66 20.2233L113.575 20.0777C114.095 19.5575 113.95 18.3507 113.367 18.101C111.931 18.2258 110.246 18.2675 108.373 18.2675C106.75 18.2675 105.211 18.2258 103.067 18.101C102.423 18.3507 102.423 19.6615 102.818 20.0777L103.92 20.2857C105.023 20.5146 105.544 20.8059 105.544 21.0765C105.544 21.4718 105.356 22.2414 104.961 23.2404C103.92 25.8413 102.88 28.5877 101.32 31.8338C99.8841 29.1289 98.0945 25.4876 96.9086 22.8032C96.5131 21.8669 96.3884 21.5132 96.3884 21.0765C96.3884 20.7849 97.2832 20.5146 98.8019 20.2441L99.759 20.0985C100.217 19.8696 100.3 18.184 99.572 18.1218C95.4311 18.2466 92.1853 18.288 88.0861 18.288H74.9775C72.2518 18.288 70.171 18.2466 67.5077 18.1218C66.8626 18.3921 66.8626 19.6405 67.3206 20.0985L68.4856 20.3482V20.3482ZM55.7307 20.0777C57.9363 20.0777 59.1639 21.3051 59.1639 23.157C59.1639 23.719 59.0183 24.3014 58.727 24.4472C57.9987 24.8423 56.9791 24.9464 56.0636 24.9464H53.65C51.5693 24.9464 50.6537 24.905 50.6537 24.1141C50.6747 22.3041 53.005 20.0777 55.7307 20.0777V20.0777ZM55.6475 41.4882C59.5384 41.4882 64.3449 39.8652 67.0085 35.1006C67.0085 34.1432 66.0303 33.6854 65.3229 33.7895C63.5753 36.3904 61.099 36.7025 59.2888 36.7025C53.2546 36.7025 50.1335 32.6037 50.1335 28.4212C50.1335 27.5265 50.2792 27.4018 51.7565 27.4018H64.1785C66.1968 27.4018 66.5089 26.6112 66.5089 25.5498C66.5089 21.2429 62.8885 17.4768 56.1261 17.4768C48.032 17.4768 42.1227 22.9699 42.1227 30.0444C42.1851 36.1615 46.9084 41.4882 55.6475 41.4882V41.4882ZM16.2176 20.3482C17.4036 20.3482 18.444 20.3898 19.3387 20.5563C20.6288 20.7849 21.7526 22.5952 21.7526 23.4691C21.7526 23.906 21.7526 24.4054 21.5651 25.1545C21.2324 26.2781 19.0474 30.3149 18.1319 31.8338C17.0291 30.0442 14.4282 24.988 13.5334 23.0323C13.1381 22.2001 12.9507 21.5134 12.9507 21.1805C12.9092 20.5563 14.1369 20.3482 16.2176 20.3482V20.3482ZM1.50663 20.3482C2.6096 20.6187 3.23382 20.8475 4.14937 22.4705C7.33269 28.3172 10.5372 34.7469 13.6167 41.0931C14.012 41.4258 14.449 41.4882 15.1354 41.4882C15.7806 41.4882 16.2176 41.4258 16.6338 41.0931C18.1111 38.3047 22.0228 30.8351 23.6875 27.922C25.6433 31.5217 29.0141 38.055 30.3666 41.0931C30.7411 41.4258 31.1989 41.4882 31.8441 41.4882C32.489 41.4882 32.9675 41.4258 33.342 41.0931C36.0678 35.142 39.0433 28.983 42.0397 23.2404C43.0801 21.1805 43.5376 20.6187 45.66 20.2233L46.5755 20.0777C47.0957 19.5575 46.95 18.3507 46.3882 18.101C44.9527 18.2258 43.2671 18.2675 41.3945 18.2675C39.7715 18.2675 38.2318 18.2258 36.0886 18.101C35.4436 18.3507 35.4436 19.6615 35.8389 20.0777L36.9419 20.2857C38.0653 20.5146 38.5647 20.8059 38.5647 21.0765C38.5647 21.4718 38.3774 22.2414 37.9613 23.2404C36.9209 25.8413 35.9222 28.5877 34.341 31.8338C32.9051 29.1289 31.1159 25.4876 29.9296 22.8032C29.5553 21.8669 29.4094 21.5132 29.4094 21.0765C29.4094 20.7849 30.3042 20.5146 31.8231 20.2441L32.7804 20.0985C33.238 19.8696 33.3006 18.184 32.593 18.1218C28.4523 18.2466 25.2064 18.288 21.1073 18.288H7.99871C5.27297 18.288 3.19222 18.2466 0.528897 18.1218C-0.136771 18.3921 -0.136771 19.6405 0.320807 20.0985L1.50663 20.3482V20.3482Z" fill="black"/>
</svg>
