<svg width="212" height="29" viewBox="0 0 212 29" version="1.1" xmlns="http://www.w3.org/2000/svg" xmlns:xlink="http://www.w3.org/1999/xlink">
<title>Compass Logo</title>
<desc>Created using Figma</desc>
<g id="Canvas" transform="translate(-1791 -2714)">
<g id="Compass Logo">
<g id="Fill 1">
<use xlink:href="#path0_fill" transform="translate(1823.55 2714.13)" fill="#E0E0E0"/>
</g>
<g id="Fill 2">
<use xlink:href="#path1_fill" transform="translate(1860.47 2714.1)" fill="#E0E0E0"/>
</g>
<g id="Fill 3">
<use xlink:href="#path2_fill" transform="translate(1901.12 2714.96)" fill="#E0E0E0"/>
</g>
<g id="Fill 4">
<use xlink:href="#path3_fill" transform="translate(1901.12 2714.96)" fill="#E0E0E0"/>
</g>
<g id="Fill 5">
<use xlink:href="#path4_fill" transform="translate(1791.81 2714.12)" fill="#E0E0E0"/>
</g>
<g id="Fill 6">
<use xlink:href="#path5_fill" transform="translate(1957.22 2714.49)" fill="#E0E0E0"/>
</g>
<g id="Fill 7">
<use xlink:href="#path6_fill" transform="translate(1983.09 2714.49)" fill="#E0E0E0"/>
</g>
<g id="Fill 8">
<use xlink:href="#path7_fill" transform="translate(1831.6 2722.22)" fill="#E0E0E0"/>
</g>
<g id="Fill 9">
<use xlink:href="#path8_fill" transform="translate(1923.73 2714.73)" fill="#E0E0E0"/>
</g>
</g>
</g>
<defs>
<path id="path0_fill" fill-rule="evenodd" d="M 14.1031 3.86353C 19.7618 3.86353 24.3657 8.49636 24.3657 14.1912C 24.3657 19.8858 19.7618 24.5189 14.1031 24.5189C 8.44412 24.5189 3.84021 19.8858 3.84021 14.1912C 3.84021 8.49636 8.44412 3.86353 14.1031 3.86353ZM 14.1054 0C 6.31508 0 0 6.3551 0 14.1948C 0 22.0342 6.31508 28.3896 14.1054 28.3896C 21.8955 28.3896 28.2108 22.0342 28.2108 14.1948C 28.2108 6.3551 21.8955 0 14.1054 0Z"/>
<path id="path1_fill" fill-rule="evenodd" d="M 30.096 0C 29.9581 0 29.8428 0.0750515 29.774 0.181742L 15.2416 19.9463L 0.708987 0.181742C 0.640501 0.0750515 0.524977 0 0.38703 0C 0.173286 0 0 0.17046 0 0.380653L 0 26.7149L 3.84276 26.7149L 3.84276 11.1638L 15.0162 26.2469C 15.0708 26.311 15.1502 26.3539 15.2416 26.3541C 15.333 26.3539 15.4122 26.311 15.4668 26.2469L 26.6403 11.1638L 26.6403 26.7149L 30.483 26.7149L 30.483 0.380653C 30.483 0.17046 30.3097 0 30.096 0Z"/>
<path id="path2_fill" fill-rule="evenodd" d="M 3.84276 17.139L 3.84276 26.7149L 0 26.7149L 0 0"/>
<path id="path3_fill" fill-rule="evenodd" d="M 12.8054 0L 0 0L 0 26.7149L 3.84276 26.7149L 3.84276 17.139L 12.8054 17.139C 17.5083 17.139 21.3208 13.3023 21.3208 8.56936C 21.3208 3.8367 17.5083 0 12.8054 0ZM 12.8035 13.2724L 3.84082 13.2724L 3.84082 3.86768L 12.8035 3.86768C 15.3798 3.86768 17.4761 5.97721 17.4761 8.56992C 17.4761 11.1629 15.3798 13.2724 12.8035 13.2724Z"/>
<path id="path4_fill" fill-rule="evenodd" d="M 22.2196 20.5067C 20.341 22.9471 17.4035 24.5225 14.1054 24.5225C 8.44643 24.5225 3.84276 19.8896 3.84276 14.1948C 3.84276 8.5002 8.44643 3.86712 14.1054 3.86712C 17.4032 3.86712 20.3408 5.44246 22.2196 7.88262L 24.9791 5.15329C 22.3917 2.00579 18.4814 0 14.1054 0C 6.31508 0 0 6.35534 0 14.1948C 0 22.0345 6.31508 28.3896 14.1054 28.3896C 18.4814 28.3896 22.392 26.3838 24.9793 23.2363L 22.2196 20.5067Z"/>
<path id="path5_fill" fill-rule="evenodd" d="M 9.37184 27.6658C 4.92708 27.6658 1.82207 25.1906 0 23.1144L 2.70897 20.4545C 3.38895 21.3396 5.66848 23.8872 9.37184 23.8872C 12.8334 23.8872 15.2509 22.1343 15.2509 19.624C 15.2509 17.4777 13.7998 16.0338 10.8135 15.2102L 7.57463 14.4705C 0.648544 12.7624 0.648544 8.58727 0.648544 7.215C 0.648544 2.89954 4.11134 0 9.26509 0C 12.6487 0 15.528 1.29599 18.0678 3.96203L 15.3589 6.62587C 14.664 5.89449 12.3857 3.77906 9.26509 3.77906C 6.23124 3.77906 4.49131 5.03115 4.49131 7.215C 4.49131 7.86618 4.73674 10.0429 7.89805 10.7257L 10.8434 11.3931C 16.2397 12.668 19.0939 15.5143 19.0939 19.624C 19.0939 24.2083 14.9143 27.6658 9.37184 27.6658Z"/>
<path id="path6_fill" fill-rule="evenodd" d="M 9.37184 27.6658C 4.92708 27.6658 1.82207 25.1906 0 23.1144L 2.70897 20.4545C 3.38895 21.3396 5.66849 23.8872 9.37184 23.8872C 12.8334 23.8872 15.2509 22.1343 15.2509 19.624C 15.2509 17.4777 13.7998 16.0338 10.8135 15.2102L 7.57463 14.4705C 0.648544 12.7624 0.648544 8.58727 0.648544 7.215C 0.648544 2.89954 4.11134 0 9.26509 0C 12.6487 0 15.5278 1.29599 18.0678 3.96203L 15.3589 6.62587C 14.664 5.89449 12.3857 3.77906 9.26509 3.77906C 6.23124 3.77906 4.49131 5.03115 4.49131 7.215C 4.49131 7.86618 4.73674 10.0429 7.89805 10.7257L 10.8434 11.3931C 16.2397 12.668 19.0937 15.5143 19.0937 19.624C 19.0937 24.2083 14.9143 27.6658 9.37184 27.6658Z"/>
<path id="path7_fill" fill-rule="evenodd" d="M 12.1142 2.73448L 2.71726 12.191L 0 9.45649L 9.39694 0L 12.1142 2.73448Z"/>
<path id="path8_fill" fill-rule="evenodd" d="M 14.7115 0.223192C 14.6504 0.0919749 14.5175 0 14.3613 0C 14.2049 0 14.072 0.0919749 14.0108 0.223192L 0 26.9506L 4.34629 26.9506L 7.93437 20.1033L 20.788 20.1033L 24.3761 26.9506L 28.7224 26.9506L 14.7115 0.223192ZM 9.95862 16.2343L 14.359 7.83691L 18.7592 16.2343L 9.95862 16.2343Z"/>
</defs>
</svg>
