<svg width="139" height="48" viewBox="0 0 139 48" version="1.1" xmlns="http://www.w3.org/2000/svg" xmlns:xlink="http://www.w3.org/1999/xlink">
<title>digit Logo</title>
<desc>Created using Figma</desc>
<g id="Canvas" transform="translate(-1606 -2705)">
<g id="digit Logo">
<use xlink:href="#path0_fill" transform="translate(1606.4 2705)" fill="#E0E0E0"/>
</g>
</g>
<defs>
<path id="path0_fill" fill-rule="evenodd" d="M 19.414 0.362047C 9.47833 2.09203 1.67672 10.2126 0.249432 20.2585C 0.21249 20.491 0.150936 20.7234 0.0893707 20.9558L 0.0874023 20.9631C 0.0572472 21.0771 0.0271454 21.1909 0 21.3049L 0 26.0488C 0.0107269 26.0759 0.0219727 26.1028 0.0333366 26.1299L 0.0389328 26.1433C 0.0845337 26.2519 0.130959 26.3623 0.152428 26.4812C 0.26326 26.9787 0.358704 27.4809 0.454144 27.9831C 0.645088 28.988 0.836018 29.9927 1.15015 30.9602C 4.91931 42.5825 16.5317 49.3496 28.4211 46.852C 41.0866 44.1872 49.4564 31.5322 46.4771 18.4307C 43.6502 6.02684 31.8439 -1.81471 19.414 0.362047ZM 26.8178 35.7412L 26.8164 35.7412C 26.2157 35.7436 25.6146 35.7458 25.0123 35.7458L 15.9358 35.7458C 15.4508 35.7458 14.9519 35.718 14.4946 35.5923C 12.9011 35.1599 11.7925 33.7226 11.7786 32.0483C 11.7648 26.6348 11.7648 21.2212 11.7786 15.8076C 11.7925 13.7146 13.3722 12.1101 15.4785 12.0823C 17.5022 12.0613 19.5259 12.064 21.5496 12.0666L 21.9567 12.0671L 22.3637 12.0676L 23.585 12.0683L 31.4836 12.0683C 32.9802 12.0683 34.1026 12.7241 34.837 14.0217C 35.1973 14.6355 35.322 15.3193 35.322 16.0307C 35.322 17.3389 35.3212 18.6472 35.3203 19.9553C 35.3177 23.8786 35.3151 27.8 35.3359 31.7136C 35.3359 34.0017 33.673 35.8017 31.3173 35.7598C 29.8147 35.73 28.3192 35.7356 26.8207 35.7412L 26.8192 35.7412L 26.8178 35.7412ZM 79.5935 8.1057C 80.1755 8.11962 80.3556 8.35668 80.3833 8.94286L 80.3833 9.41722L 80.3833 34.3923L 80.3833 34.8806C 80.3695 35.5224 80.1893 35.7319 79.5657 35.7458C 78.3602 35.7737 77.1684 35.7737 75.9629 35.7458C 75.3809 35.7319 75.1869 35.5224 75.1591 34.9226C 75.1503 34.717 75.1528 34.5115 75.1557 34.2693C 75.1574 34.1333 75.1591 33.9858 75.1591 33.8203C 71.584 35.9551 67.9395 36.3735 64.1565 34.8528C 61.8008 33.918 59.9717 32.3135 58.6414 30.1648C 55.9531 25.8393 56.3272 20.2864 59.5698 16.3655C 61.4821 14.0495 63.921 12.6543 66.8725 12.2078C 69.7826 11.7612 72.4986 12.3752 75.1453 14.0215L 75.1453 13.0867C 75.1453 12.635 75.1438 12.185 75.1422 11.7353C 75.1391 10.8379 75.1361 9.94213 75.1453 9.04051C 75.1591 8.35668 75.367 8.11962 75.9906 8.1057C 77.1962 8.07762 78.3879 8.07762 79.5935 8.1057ZM 62.0918 23.8721C 62.0779 27.5137 65.0434 30.5137 68.6463 30.4995C 72.2353 30.4856 75.1453 27.5276 75.1591 23.8999C 75.1591 20.2722 72.2491 17.3284 68.6463 17.3144C 65.085 17.3005 62.1057 20.2722 62.0918 23.8721ZM 135.706 12.0715L 135.658 12.0713C 135.332 12.0696 135.002 12.0681 134.665 12.0681L 134.665 11.2869C 134.665 11.031 134.666 10.7754 134.668 10.5195C 134.671 10.0078 134.674 9.49608 134.665 8.98461C 134.651 8.35668 134.443 8.1057 133.847 8.1057C 132.642 8.07762 131.45 8.07762 130.244 8.1057C 129.648 8.11962 129.441 8.35668 129.427 8.98461C 129.418 9.54271 129.421 10.1008 129.424 10.6589C 129.425 10.938 129.427 11.217 129.427 11.4961C 129.427 11.6155 129.409 11.729 129.389 11.8562C 129.378 11.9221 129.367 11.9919 129.357 12.0681L 128.554 12.0681C 128.309 12.0681 128.064 12.0666 127.817 12.0649L 127.79 12.0647L 127.762 12.0644L 127.733 12.0642L 127.704 12.064L 127.673 12.0637L 127.642 12.0637C 127.206 12.062 126.769 12.0603 126.337 12.0681C 125.713 12.082 125.519 12.2495 125.519 12.8496C 125.505 14.0774 125.505 15.3191 125.519 16.5469C 125.533 17.105 125.713 17.2864 126.281 17.3005C 126.676 17.3076 127.068 17.3076 127.459 17.3076C 127.851 17.3076 128.242 17.3076 128.637 17.3144C 128.791 17.3144 128.94 17.3249 129.099 17.3364C 129.198 17.3435 129.302 17.3508 129.413 17.3562L 129.413 18.2632L 129.413 29.9834L 129.413 34.8667C 129.413 35.5505 129.593 35.7598 130.272 35.7737C 131.45 35.7876 132.628 35.7876 133.806 35.7737C 134.429 35.7598 134.623 35.5505 134.651 34.9226C 134.66 34.8013 134.657 34.6736 134.654 34.5478C 134.652 34.4858 134.651 34.4245 134.651 34.3645L 134.651 18.2493L 134.651 17.3701L 134.811 17.3623C 135.028 17.3513 135.209 17.3423 135.399 17.3423C 135.64 17.3423 135.879 17.3408 136.118 17.3391L 136.146 17.3389C 136.613 17.3359 137.077 17.3332 137.547 17.3423C 137.935 17.3562 138.282 17.2864 138.559 17.0215L 138.559 12.417C 138.282 12.124 137.935 12.0542 137.547 12.0681C 136.938 12.0771 136.33 12.0744 135.706 12.0715ZM 115.029 12.8635C 115.002 12.2915 114.835 12.0962 114.281 12.0823C 113.062 12.0683 111.828 12.0683 110.609 12.0823C 110.027 12.0962 109.847 12.2915 109.805 12.8913C 109.796 13.0957 109.799 13.2998 109.802 13.5473C 109.803 13.6887 109.805 13.8442 109.805 14.0217C 107.103 12.3332 104.332 11.7334 101.366 12.2217C 98.3869 12.7099 95.9619 14.1611 94.0635 16.519C 90.7655 20.6492 90.6408 26.551 93.7448 30.8484C 95.2968 32.9831 97.3199 34.4761 99.8419 35.2156C 103.306 36.248 106.59 35.7458 109.75 33.8064C 109.57 35.3132 109.015 36.4993 108.087 37.5317C 105.565 40.3223 101.297 40.4199 98.6364 37.727C 98.1791 37.2666 97.7079 37.0434 97.0567 37.0574C 96.3305 37.0823 95.5995 37.0774 94.8694 37.0725L 94.8522 37.0725C 94.3619 37.0691 93.8721 37.0657 93.3845 37.0713C 92.5115 37.0713 92.3175 37.4062 92.6916 38.2153C 95.4215 44.1731 102.71 46.7405 108.461 43.6709C 112.743 41.3828 114.96 37.6992 115.002 32.8157C 115.04 28.2512 115.032 23.6802 115.023 19.1118L 115.023 19.1089L 115.023 19.1059L 115.023 19.103L 115.023 19.1001L 115.023 19.0972L 115.023 19.0942L 115.023 19.0913C 115.019 17.1308 115.016 15.1709 115.016 13.2124C 115.029 13.0867 115.029 12.9751 115.029 12.8635ZM 103.306 30.4997C 99.7034 30.5276 96.7241 27.5278 96.7379 23.886C 96.7379 20.2864 99.7034 17.3005 103.279 17.3144C 106.881 17.3284 109.791 20.2585 109.805 23.886C 109.805 27.5137 106.895 30.4717 103.306 30.4997ZM 123.537 12.7517C 123.481 12.2773 123.315 12.082 122.816 12.082C 121.541 12.0681 120.28 12.0681 119.005 12.082C 118.534 12.0959 118.354 12.2912 118.326 12.7795C 118.317 12.9009 118.32 13.0286 118.323 13.1543C 118.325 13.2163 118.326 13.2776 118.326 13.3376L 118.326 23.8721L 118.326 34.6155C 118.326 35.6479 118.451 35.7595 119.49 35.7734L 122.4 35.7734C 123.412 35.7734 123.551 35.634 123.551 34.5876L 123.551 34.448L 123.551 13.3935C 123.551 13.1704 123.551 12.9609 123.537 12.7517ZM 88.1725 12.082C 88.6436 12.082 88.8238 12.2773 88.8653 12.7656C 88.8862 12.9021 88.8835 13.0464 88.8809 13.1868C 88.8801 13.2331 88.8792 13.2788 88.8792 13.3237L 88.8792 34.448L 88.8792 34.727C 88.8653 35.5923 88.7268 35.7456 87.8676 35.7456C 86.8006 35.7595 85.7475 35.7595 84.6805 35.7456C 83.8074 35.7317 83.6689 35.5923 83.6689 34.727L 83.6689 23.8579L 83.6689 13.3376C 83.6689 13.2776 83.6674 13.2163 83.6658 13.1543C 83.6628 13.0286 83.6596 12.9009 83.6689 12.7795C 83.7105 12.2912 83.8767 12.0959 84.3617 12.082C 85.6366 12.0681 86.8976 12.0681 88.1725 12.082ZM 19.235 28.728C 20.787 29.635 22.4914 29.886 24.2651 29.2024C 26.0389 28.5327 27.1474 27.1931 27.7433 25.3794L 29.1844 25.3794C 28.5747 27.7654 27.2583 29.4814 25.0688 30.4162C 22.6854 31.4348 20.4128 31.1697 18.1818 29.7046C 18.389 29.5115 18.5792 29.3354 18.7689 29.1599C 18.9217 29.0185 19.0742 28.8774 19.235 28.728ZM 19.3161 21.1235C 19.5072 21.1062 19.6936 21.0911 19.8751 21.0764L 19.9028 21.0742C 20.1455 21.0544 20.3795 21.0354 20.6048 21.0119L 20.6048 19.7004C 20.241 19.6789 19.9186 19.6572 19.5991 19.6357L 19.5562 19.6328L 19.3161 19.6167C 19.2997 19.3362 19.2784 19.0752 19.2581 18.8249C 19.244 18.6521 19.2304 18.4844 19.2191 18.3191L 17.9165 18.3191C 17.8967 18.6572 17.877 18.9599 17.8572 19.2627L 17.8333 19.6306C 17.6047 19.6445 17.3899 19.6584 17.1751 19.6726C 16.9603 19.6865 16.7456 19.7004 16.5169 19.7143L 16.5169 21.0398L 16.9761 21.0696C 17.2528 21.0876 17.5286 21.1055 17.8333 21.1235C 17.8497 21.4109 17.8708 21.6789 17.891 21.936C 17.9052 22.116 17.9189 22.2908 17.9303 22.4631L 19.2468 22.4631C 19.26 21.9975 19.2858 21.5957 19.3122 21.1846L 19.3161 21.1235ZM 30.4979 21.0117L 26.3823 21.0117L 26.3823 19.7141L 30.4979 19.7141L 30.4979 21.0117Z"/>
</defs>
</svg>
