<svg width="118" height="41" viewBox="0 0 118 41" version="1.1" xmlns="http://www.w3.org/2000/svg" xmlns:xlink="http://www.w3.org/1999/xlink">
<title>inVision logo</title>
<desc>Created using Figma</desc>
<g id="Canvas" transform="translate(-1439 -2708)">
<g id="inVision logo">
<use xlink:href="#path0_fill" transform="translate(1439.06 2708.95)" fill="#E0E0E0"/>
</g>
</g>
<defs>
<path id="path0_fill" fill-rule="evenodd" d="M 40.4873 14.1597L 44.9065 26.271L 49.3406 14.1597L 53.2837 14.1597L 46.573 30.7715L 43.1805 30.7715L 39.2671 21.1274L 39.2671 35.9001C 39.2671 37.8738 37.675 39.4736 35.7109 39.4736L 3.55621 39.4736C 1.59212 39.4736 0 37.8738 0 35.8853L 0 3.57349C 0 1.59985 1.59212 0 3.55621 0L 35.7258 0C 37.6899 0 39.282 1.59985 39.282 3.57349L 39.282 14.1597L 40.4873 14.1597ZM 15.5194 10.0479C 15.5194 8.70215 14.4332 7.67041 13.1238 7.67041C 11.8292 7.67041 10.7281 8.70215 10.7281 10.0479C 10.7281 11.3936 11.8144 12.4253 13.1238 12.4253C 14.4183 12.4253 15.5194 11.3936 15.5194 10.0479ZM 25.5779 26.9587C 25.5779 28.9475 26.7386 30.3977 29.1788 30.3977C 31.2619 30.3977 32.9285 29.052 33.8361 25.8225L 32.2886 25.2244C 31.5149 27.3923 30.8453 27.7812 30.3096 27.7812C 29.774 27.7812 29.4913 27.4224 29.4913 26.7195C 29.4913 26.3906 29.5657 26.0466 29.6698 25.613L 30.8007 21.5312C 31.0834 20.5742 31.1875 19.7219 31.1875 18.9443C 31.1875 15.894 29.3425 14.3093 27.1254 14.3093C 25.0423 14.3093 22.9294 16.1931 21.8729 18.1819L 22.6467 14.6233L 16.6056 14.6233L 15.7574 17.7632L 18.5846 17.7632L 16.8437 24.7607C 15.4896 27.811 12.975 27.8708 12.6625 27.7961C 12.1417 27.6765 11.8144 27.4822 11.8144 26.8093C 11.8144 26.4055 11.8888 25.8523 12.0673 25.1794L 14.7159 14.6233L 8.0052 14.6233L 7.15706 17.7632L 9.95442 17.7632L 8.15399 25.1497C 8.02008 25.7476 7.94568 26.3906 7.94568 26.929C 7.94568 29.0222 9.07652 30.4128 11.4721 30.4128C 13.466 30.4128 15.073 29.2166 16.2336 27.3027L 15.5194 30.1584L 19.4773 30.1584L 21.739 21.0527C 22.3044 18.75 23.4055 17.554 25.0572 17.554C 26.3517 17.554 27.1701 18.3762 27.1701 19.7219C 27.1701 20.1106 27.1254 20.5293 26.9915 20.9929L 25.8309 25.1794C 25.6523 25.7925 25.5779 26.3906 25.5779 26.9587ZM 55.1585 14.1597L 58.923 14.1597L 58.923 30.6519L 55.1585 30.6519L 55.1585 14.1597ZM 111.329 13.8159C 108.784 13.8159 107.252 15.1616 106.195 16.7166L 106.195 14.1599L 102.431 14.1599L 102.431 30.6521L 106.195 30.6521L 106.195 21.3518C 106.195 18.7949 107.713 17.2549 109.9 17.2549C 112.132 17.2549 113.412 18.7202 113.412 21.2771L 113.412 30.6372L 117.176 30.6372L 117.176 20.1406C 117.176 16.313 115.034 13.8159 111.329 13.8159ZM 82.686 22.4583C 82.686 17.7185 86.4208 13.8159 91.4501 13.8159C 96.4793 13.8159 100.184 17.6587 100.184 22.3984C 100.184 27.1084 96.4496 31.011 91.3905 31.011C 86.3761 31.011 82.686 27.1682 82.686 22.4583ZM 91.4501 27.7363C 94.4855 27.7363 96.4198 25.374 96.4198 22.4583C 96.4198 19.5276 94.3367 17.1204 91.3905 17.1204C 88.37 17.1204 86.4505 19.4978 86.4505 22.3984C 86.4505 25.3291 88.5337 27.7363 91.4501 27.7363ZM 68.8916 20.9031L 68.5106 20.7793C 66.7423 20.2061 65.1866 19.7019 65.1866 18.5854L 65.1866 18.5256C 65.1866 17.5537 66.0198 16.866 67.4929 16.866C 68.2071 16.866 68.9957 17.0305 69.829 17.3145C 69.829 17.3145 69.8439 17.3145 69.8587 17.3293C 69.9332 17.3594 70.0076 17.3892 70.0671 17.4043C 70.6622 17.5986 72.2692 17.8528 73.6233 15.7295C 71.8675 14.5933 69.6356 13.8755 67.5822 13.8755C 64.3236 13.8755 61.7345 15.7744 61.7345 18.8994L 61.7345 18.9592C 61.7345 22.1143 64.4426 23.116 66.868 23.8037C 67.01 23.8479 67.151 23.8914 67.2904 23.9341C 69.0355 24.4707 70.5283 24.9294 70.5283 26.1064L 70.5283 26.1663C 70.5283 27.2576 69.5909 27.9456 67.9839 27.9456C 66.9126 27.9456 65.7371 27.6614 64.5616 27.1082C 64.2194 26.9587 62.4636 26.3606 60.9757 28.5137C 63.0142 30.1135 65.5883 30.9509 67.8947 30.9509C 71.317 30.9509 73.9804 29.2314 73.9804 25.7625L 73.9804 25.7175C 73.9804 22.7422 71.2872 21.6506 68.8916 20.9031ZM 76.4652 14.1597L 80.2297 14.1597L 80.2297 30.6519L 76.4652 30.6519L 76.4652 14.1597Z"/>
</defs>
</svg>
