<svg width="620" height="620" viewBox="0 0 620 620" version="1.1" xmlns="http://www.w3.org/2000/svg" xmlns:xlink="http://www.w3.org/1999/xlink">
<title>middle</title>
<desc>Created using Figma</desc>
<g id="Canvas" transform="translate(-1329 -2950)">
<clipPath id="clip-0" clip-rule="evenodd">
<path d="M 1329 2950L 1949 2950L 1949 3570L 1329 3570L 1329 2950Z" fill="#FFFFFF"/>
</clipPath>
<g id="middle" clip-path="url(#clip-0)">
<g id="Ellipse">
<mask id="mask0_outline_ins">
<use xlink:href="#path0_fill" fill="white" transform="translate(1375 3090)"/>
</mask>
<g mask="url(#mask0_outline_ins)">
<use xlink:href="#path1_stroke_2x" transform="translate(1375 3090)" fill="#C73EC1" fill-opacity="0.3"/>
</g>
</g>
<g id="Ellipse">
<mask id="mask1_outline_ins">
<use xlink:href="#path2_fill" fill="white" transform="translate(1732 3085)"/>
</mask>
<g mask="url(#mask1_outline_ins)">
<use xlink:href="#path3_stroke_2x" transform="translate(1732 3085)" fill="#58BF75" fill-opacity="0.3"/>
</g>
</g>
<g id="Polygon">
<mask id="mask2_outline_ins">
<use xlink:href="#path4_fill" fill="white" transform="matrix(0.866025 0.5 -0.5 0.866025 1810 3313)"/>
</mask>
<g mask="url(#mask2_outline_ins)">
<use xlink:href="#path5_stroke_2x" transform="matrix(0.866025 0.5 -0.5 0.866025 1810 3313)" fill="#58BF75" fill-opacity="0.3"/>
</g>
</g>
<g id="Polygon">
<mask id="mask3_outline_ins">
<use xlink:href="#path4_fill" fill="white" transform="matrix(0.866025 -0.5 0.5 0.866025 1541 3415)"/>
</mask>
<g mask="url(#mask3_outline_ins)">
<use xlink:href="#path5_stroke_2x" transform="matrix(0.866025 -0.5 0.5 0.866025 1541 3415)" fill="#B9EEEB"/>
</g>
</g>
<g id="Ellipse">
<mask id="mask4_outline_ins">
<use xlink:href="#path6_fill" fill="white" transform="translate(1931 3323)"/>
</mask>
<g mask="url(#mask4_outline_ins)">
<use xlink:href="#path7_stroke_2x" transform="translate(1931 3323)" fill="#7A49E3" fill-opacity="0.3"/>
</g>
</g>
</g>
</g>
<defs>
<path id="path0_fill" d="M 22 11C 22 17.0751 17.0751 22 11 22C 4.92487 22 0 17.0751 0 11C 0 4.92487 4.92487 0 11 0C 17.0751 0 22 4.92487 22 11Z"/>
<path id="path1_stroke_2x" d="M 20 11C 20 15.9706 15.9706 20 11 20L 11 24C 18.1797 24 24 18.1797 24 11L 20 11ZM 11 20C 6.02944 20 2 15.9706 2 11L -2 11C -2 18.1797 3.8203 24 11 24L 11 20ZM 2 11C 2 6.02944 6.02944 2 11 2L 11 -2C 3.8203 -2 -2 3.8203 -2 11L 2 11ZM 11 2C 15.9706 2 20 6.02944 20 11L 24 11C 24 3.8203 18.1797 -2 11 -2L 11 2Z"/>
<path id="path2_fill" d="M 16 8C 16 12.4183 12.4183 16 8 16C 3.58172 16 0 12.4183 0 8C 0 3.58172 3.58172 0 8 0C 12.4183 0 16 3.58172 16 8Z"/>
<path id="path3_stroke_2x" d="M 14 8C 14 11.3137 11.3137 14 8 14L 8 18C 13.5228 18 18 13.5228 18 8L 14 8ZM 8 14C 4.68629 14 2 11.3137 2 8L -2 8C -2 13.5228 2.47715 18 8 18L 8 14ZM 2 8C 2 4.68629 4.68629 2 8 2L 8 -2C 2.47715 -2 -2 2.47715 -2 8L 2 8ZM 8 2C 11.3137 2 14 4.68629 14 8L 18 8C 18 2.47715 13.5228 -2 8 -2L 8 2Z"/>
<path id="path4_fill" d="M 10 0L 18.6603 15L 1.33975 15L 10 0Z"/>
<path id="path5_stroke_2x" d="M 10 0L 11.7321 -1L 10 -4L 8.26795 -1L 10 0ZM 18.6603 15L 18.6603 17L 22.1244 17L 20.3923 14L 18.6603 15ZM 1.33975 15L -0.392305 14L -2.12436 17L 1.33975 17L 1.33975 15ZM 8.26795 1L 16.9282 16L 20.3923 14L 11.7321 -1L 8.26795 1ZM 18.6603 13L 1.33975 13L 1.33975 17L 18.6603 17L 18.6603 13ZM 3.0718 16L 11.7321 1L 8.26795 -1L -0.392305 14L 3.0718 16Z"/>
<path id="path6_fill" d="M 18 9C 18 13.9706 13.9706 18 9 18C 4.02944 18 0 13.9706 0 9C 0 4.02944 4.02944 0 9 0C 13.9706 0 18 4.02944 18 9Z"/>
<path id="path7_stroke_2x" d="M 16 9C 16 12.866 12.866 16 9 16L 9 20C 15.0751 20 20 15.0751 20 9L 16 9ZM 9 16C 5.13401 16 2 12.866 2 9L -2 9C -2 15.0751 2.92487 20 9 20L 9 16ZM 2 9C 2 5.13401 5.13401 2 9 2L 9 -2C 2.92487 -2 -2 2.92487 -2 9L 2 9ZM 9 2C 12.866 2 16 5.13401 16 9L 20 9C 20 2.92487 15.0751 -2 9 -2L 9 2Z"/>
</defs>
</svg>
