<svg width="119" height="48" viewBox="0 0 119 48" version="1.1" xmlns="http://www.w3.org/2000/svg" xmlns:xlink="http://www.w3.org/1999/xlink">
<title>Montage</title>
<desc>Created using Figma</desc>
<g id="Canvas" transform="translate(-1267 -2705)">
<g id="Montage">
<use xlink:href="#path0_fill" transform="translate(1267 2705)" fill="#E0E0E0"/>
</g>
</g>
<defs>
<path id="path0_fill" fill-rule="evenodd" d="M 50.7986 42.2673C 65.6901 38.3993 70.7277 38.6796 77.6476 39.8568C 82.2977 40.6416 83.9031 41.8188 84.0692 41.6506C 84.2906 41.4825 83.8478 40.5856 82.4084 39.4083C 80.9137 38.119 77.0386 35.3722 70.7277 35.3722C 56.5559 35.3722 46.3699 42.2673 38.1768 42.2673C 34.6892 42.2673 32.0874 41.3143 30.1498 39.1841C 27.4372 36.2131 27.1051 30.9997 27.714 24.0486C 28.1015 19.2277 29.3748 12.669 29.2641 12.4447C 28.4337 11.2115 27.1604 10.5388 26.2193 10.4827C 25.389 10.4827 24.005 13.678 22.2335 17.7702C 20.462 21.9184 18.5798 28.0848 18.5798 28.0848C 18.5798 27.9166 19.9638 12.5569 20.1299 10.5948C 20.2406 8.74495 19.2442 7.67986 18.3584 7.28746C 17.3066 6.839 16.5316 6.67083 15.978 6.67083C 15.4798 6.67083 15.1476 6.839 14.9262 7.2314C 14.4833 7.96015 9.88853 23.3199 9.88853 23.3199C 9.88853 23.2638 10.9957 17.7141 11.3832 12.0523C 11.4939 10.4267 11.2171 9.24947 10.5528 8.52072C 10.11 8.07226 9.50102 7.79198 8.726 7.79198C 8.33849 7.79198 7.95097 7.84803 7.56346 7.96015C 4.68481 8.74495 1.64008 10.9872 0.366832 12.3887C 0.0900389 12.669 -0.0760373 13.3417 0.0346801 13.6219C 0.0900388 13.7901 0.256115 13.7901 0.47755 13.678C 0.588267 13.6219 0.754343 13.5098 0.975778 13.3977C 2.13831 12.725 4.24194 11.4918 5.57055 11.4918C 6.06878 11.4918 6.34557 11.6599 6.56701 11.9963C 7.45275 13.2856 6.40093 19.508 4.57409 31.9527C 3.90979 36.4373 2.96869 41.8188 3.46692 42.4915C 3.79907 42.94 4.85089 43.1642 5.73663 43.1642C 6.67772 43.1642 7.17595 42.94 7.17595 42.7718C 7.23131 41.9309 8.28313 36.6615 10.0546 29.8225C 12.7118 19.6761 15.1476 14.8552 15.203 14.7992L 15.4244 14.4067L 15.4244 14.8552C 15.4244 15.0234 15.0922 32.4572 15.0369 35.3722C 14.9815 36.6055 15.1476 37.2782 15.4798 37.6145C 15.7012 37.8387 15.978 37.8948 16.4209 37.8948C 16.753 37.8948 17.0852 37.8387 17.528 37.7827C 18.4691 37.6706 18.5798 36.2131 18.5798 36.2131C 20.9049 25.1698 23.8389 20.0685 23.8943 20.0125L 24.1711 19.508L 24.0604 20.0685C 24.0604 20.1246 23.2853 24.8334 23.0639 28.1969C 22.7317 33.8026 23.7836 37.7827 26.2747 40.4734C 28.8212 43.2203 32.1427 44.5096 36.6268 44.5096C 43.1591 44.4535 46.5914 43.3324 50.7986 42.2673ZM 108.427 27.9166C 114.129 24.441 117.617 22.3669 118.115 19.9564C 118.281 19.1156 118.392 17.0414 115.734 16.4809C 115.125 16.3688 114.516 16.2566 113.908 16.2566C 105.825 16.2566 104.164 28.1969 104.164 28.1969C 102.947 29.1498 100.677 30.7195 100.566 30.7755C 100.843 29.5983 101.618 25.8425 102.061 23.7123C 102.116 23.3199 102.061 22.9275 101.784 22.6472C 101.452 22.2548 100.954 22.0306 100.566 22.0306L 100.511 22.0306C 99.5696 22.0306 99.2928 22.6472 99.1268 23.3759C 97.6874 29.1498 96.2481 31.3361 94.5873 31.1679C 94.3105 31.1679 94.0891 30.9997 93.8677 30.7195C 93.2587 29.9346 92.9819 28.1408 93.2587 26.1227C 94.0891 19.508 97.0785 15.4158 99.1821 15.584C 100.179 15.6961 100.345 16.7051 100.345 17.3217C 100.4 18.2187 100.234 18.9474 100.068 19.4519C 99.9571 20.0125 99.8464 20.4049 100.068 20.6291C 100.234 20.8534 100.455 20.8533 100.677 20.8533C 101.064 20.8533 101.563 20.5731 102.005 20.1246C 102.448 19.6761 103.168 18.6671 103.057 16.9293C 103.002 15.1355 101.618 14.0143 99.3482 13.7901C 99.016 13.7341 98.6285 13.7341 98.2964 13.7341C 95.4731 13.7341 91.4319 14.8552 89.6051 24.3289C 89.6051 24.385 88.3872 29.6544 86.3389 29.9346C 86.0067 29.9907 85.6746 29.8225 85.3978 29.5422C 84.9549 29.0377 84.8442 28.0848 85.0103 26.9636C 85.2317 25.4501 85.5085 24.3289 86.1175 21.8063C 86.2282 21.3018 86.1175 20.9655 85.9514 20.7973C 85.6746 20.4049 85.1764 20.2928 84.8442 20.2928L 84.7889 20.2928C 83.7924 20.3488 83.4602 20.9655 83.2388 21.6942C 81.7995 27.1318 79.9726 29.8225 78.4226 29.6544C 78.1458 29.6544 77.9244 29.4862 77.7029 29.2059C 77.094 28.4211 76.9833 26.7394 77.2601 24.7213C 78.2565 18.3308 81.5781 13.7901 83.6263 13.9583C 84.4014 14.0143 84.7335 14.5189 84.7335 15.64C 84.7335 16.5369 84.5121 17.2657 84.4013 17.7702C 84.2353 18.3308 84.1799 18.7232 84.346 18.9474C 84.4567 19.1156 84.6228 19.1716 84.8996 19.1716L 84.9549 19.1716C 85.8407 19.1716 87.4461 17.7702 87.5014 15.1916C 87.5568 13.3977 86.4496 12.5008 84.0692 12.2766C 83.737 12.2205 83.4049 12.2205 83.1281 12.2205C 78.4226 12.2205 75.3225 15.8082 73.6618 23.2078C 73.6618 23.2638 72.3885 29.0377 70.0634 28.8135C 69.6759 28.7574 69.2884 28.5893 69.0116 28.1969C 68.292 27.2439 68.1259 25.4501 68.5134 23.2638C 69.0116 20.4609 69.9527 15.8642 71.4474 9.13735C 71.4474 9.13735 74.9904 9.24947 80.9137 9.58581C 83.1834 9.69793 87.7782 10.2024 88.6086 10.2585C 89.1622 10.3146 89.6604 10.2024 89.8265 9.64187C 89.8819 9.41764 89.8819 9.19341 89.7158 8.85707C 89.3836 8.29649 86.7818 7.67986 81.9656 7.06323C 77.6476 6.50266 73.3296 6.0542 72.2778 5.99814L 72.3885 5.38151C 72.9975 2.2423 73.551 1.06509 72.9975 0.392402C 72.776 0.112115 72.3885 -3.34128e-09 71.8903 -3.34128e-09L 71.3367 -3.34128e-09C 69.5652 -3.34128e-09 69.3991 0.560574 68.4027 4.82094L 68.1812 5.77391C 66.908 5.71785 58.9917 5.38151 52.4594 5.43757C 52.1826 5.43757 51.9611 5.54968 51.7951 5.71785C 51.4076 6.11026 51.4629 6.839 51.5183 7.28746C 51.5736 8.01621 51.7951 8.63284 52.0165 8.91313C 52.3487 9.30553 53.2344 9.36158 54.4523 9.36158C 61.3168 9.19341 66.0776 9.19341 67.4062 9.19341C 66.9634 11.2115 64.5829 20.2367 64.5276 24.7213C 64.4169 25.1137 62.9775 29.7665 60.5417 29.8225C 60.0435 29.8225 59.7114 29.7104 59.4346 29.4862C 59.0471 29.0938 58.881 28.309 58.881 26.9636C 58.881 22.3669 60.7078 17.4899 61.5382 15.4158C 61.815 14.687 61.8704 14.4628 61.8704 14.3507C 61.8704 14.0143 61.5382 13.3417 60.9846 12.8371C 60.5971 12.4447 59.9328 11.9402 59.1024 11.9402L 59.0471 11.9402C 57.3309 11.9963 54.0648 19.2277 52.3487 23.6002C 53.179 20.1246 54.5076 14.4067 54.5076 14.1825L 54.5076 14.1265C 54.5076 13.9583 54.563 13.678 54.3416 13.4538C 54.0648 13.1174 53.4005 12.9493 52.2379 12.9493C 52.1272 12.9493 51.9611 12.9493 51.8504 12.9493C 51.5183 12.9493 51.1861 13.5098 50.245 15.0234C 49.1932 16.7051 47.6432 19.1716 45.8163 20.9655C 45.3181 17.0975 42.993 14.9673 39.3394 15.0794C 34.1356 15.2476 30.8141 20.0685 30.7588 23.3199C 30.7588 25.1137 31.3123 26.347 32.5302 27.0757C 32.1427 28.1969 31.9767 29.318 31.9767 30.4392C 31.9767 31.9527 32.3642 33.0739 33.0838 33.8587C 33.8588 34.6995 35.1321 35.0359 36.7929 35.0359C 41.6091 35.0919 45.3735 29.9346 45.927 24.1607C 47.5878 22.7593 48.8611 21.1336 49.5254 20.1807C 49.1379 22.8154 48.086 30.3831 48.086 31.4482C 48.086 31.7285 48.1968 32.0088 48.3628 32.1769C 48.695 32.5133 49.1932 32.5693 49.6914 32.5693C 49.8575 32.5693 50.245 32.5693 50.245 32.5693C 51.0201 32.5693 51.4629 30.9997 52.4594 28.4772C 53.2344 26.5151 54.4523 23.8804 56.0023 21.2458C 55.6702 22.5911 55.2273 24.7213 55.2273 26.6273C 55.2273 28.4772 55.7255 30.0468 56.722 31.0558C 57.6077 31.9527 58.8256 32.4012 60.3757 32.2891C 63.199 32.1769 64.6383 29.6544 65.1365 28.5332C 65.524 29.5422 66.6312 31.4482 69.4545 31.3921C 72.001 31.3361 73.2189 29.8225 73.7171 28.9256C 73.9385 29.9907 74.8243 31.9527 78.0351 32.0648C 80.4709 32.1769 81.8548 30.6073 82.3531 29.8225C 82.6299 30.6073 83.4602 32.233 85.3424 32.4012C 87.7229 32.6254 89.1068 30.8876 89.7158 29.9907C 90.1587 31.4482 90.9337 33.2981 94.3659 33.4663C 95.916 33.5223 97.2999 32.4012 97.2999 32.4012L 97.1339 33.0739C 97.1339 33.0739 96.4142 33.5223 95.2517 34.139C 91.4319 36.2131 88.055 37.7827 87.2246 41.3143C 86.3389 45.0701 88.7193 47.3685 92.1516 47.3685C 94.3106 47.3685 97.5214 46.1913 98.7946 40.4734C 99.625 36.6615 100.123 33.6905 100.234 33.1299C 101.009 32.6254 103.445 30.9437 103.832 30.6634C 103.888 33.3541 105.493 35.8207 108.648 35.8207C 114.018 35.8207 117.838 29.1498 118.004 27.2999C 118.059 26.8515 117.838 26.7394 117.727 26.7394C 117.118 26.5712 116.731 27.356 115.9 28.4211C 115.347 29.0938 112.634 32.9617 109.479 32.9617C 107.818 32.9617 107.873 31.0558 108.261 28.309C 108.427 28.1408 108.427 28.0287 108.427 27.9166ZM 108.981 25.5061C 110.309 20.2928 113.409 18.2187 114.461 18.2187C 114.516 18.2187 114.516 18.2187 114.572 18.2187C 114.793 18.2747 114.904 18.3868 114.959 18.6671C 115.125 19.7322 113.299 22.5911 108.981 25.5061ZM 96.8017 35.0919C 96.5249 36.2131 95.8606 39.072 95.5285 40.3613C 94.6981 43.4445 93.4248 44.7899 92.0408 44.7899C 90.4354 44.7899 89.9926 42.996 90.3801 41.5385C 90.9337 39.4083 92.4284 37.8387 96.8017 35.0919ZM 35.9071 28.1408C 35.9071 28.1408 36.7375 28.2529 37.3464 28.1969C 38.8411 28.1408 40.059 27.8045 41.443 27.1318C 40.7787 30.1028 39.3394 33.5223 37.2911 33.5223C 36.0178 33.5223 35.575 31.5043 35.575 30.8316C 35.575 29.9907 35.6857 29.0938 35.9071 28.1408ZM 36.5714 26.0667C 37.2357 24.385 38.1768 22.8714 38.6751 22.1427C 39.0072 21.5821 39.1733 21.4139 39.1733 21.3018C 39.1733 20.9655 39.0626 20.7412 38.8411 20.6291C 38.2875 20.2367 35.9071 21.1897 34.0249 24.385C 33.8035 23.9926 33.6928 23.488 33.6928 22.9275C 33.6928 20.3488 36.1839 17.602 38.5643 17.602C 39.2286 17.602 39.9483 17.8823 40.5019 18.4429C 41.443 19.3959 41.9412 21.0215 41.9412 22.8154C 41.9412 23.2638 41.9412 23.7683 41.8859 24.3289C 40.2251 25.394 38.8411 26.1227 36.5714 26.0667Z"/>
</defs>
</svg>
