<svg width="90" height="90" viewBox="0 0 90 90" version="1.1" xmlns="http://www.w3.org/2000/svg" xmlns:xlink="http://www.w3.org/1999/xlink">
<title>prototype-small</title>
<desc>Created using Figma</desc>
<g id="Canvas" transform="translate(-4300 -382)">
<clipPath id="clip-0" clip-rule="evenodd">
<path d="M 4300 382L 4390 382L 4390 472L 4300 472L 4300 382Z" fill="#FFFFFF"/>
</clipPath>
<g id="prototype-small" clip-path="url(#clip-0)">
<g id="base" filter="url(#filter0_d)">
<use xlink:href="#path0_fill" transform="translate(4315 397)" fill="#FFFFFF"/>
</g>
<g id="Rectangle">
<mask id="mask0_outline_ins">
<use xlink:href="#path1_fill" fill="white" transform="translate(4333.75 415.75)"/>
</mask>
<g mask="url(#mask0_outline_ins)">
<use xlink:href="#path2_stroke_2x" transform="translate(4333.75 415.75)" fill="#7A49E3" fill-opacity="0.3"/>
</g>
</g>
<g id="Polygon">
<use xlink:href="#path3_fill" transform="matrix(6.12323e-17 -1 1 6.12323e-17 4331.5 433.75)" fill="#FFFFFF"/>
<mask id="mask1_outline_out">
<rect id="mask1_outline_inv" fill="white" x="-3" y="-4" width="20" height="17" transform="matrix(6.12323e-17 -1 1 6.12323e-17 4331.5 433.75)"/>
<use xlink:href="#path3_fill" fill="black" transform="matrix(6.12323e-17 -1 1 6.12323e-17 4331.5 433.75)"/>
</mask>
<g mask="url(#mask1_outline_out)">
<use xlink:href="#path4_stroke_2x" transform="matrix(6.12323e-17 -1 1 6.12323e-17 4331.5 433.75)" fill="#FFFFFF"/>
</g>
</g>
<g id="Polygon">
<use xlink:href="#path3_fill" transform="matrix(6.12323e-17 -1 1 6.12323e-17 4331.5 433.75)" fill="#7A49E3" fill-opacity="0.3"/>
<mask id="mask2_outline_ins">
<use xlink:href="#path3_fill" fill="white" transform="matrix(6.12323e-17 -1 1 6.12323e-17 4331.5 433.75)"/>
</mask>
<g mask="url(#mask2_outline_ins)">
<use xlink:href="#path4_stroke_2x" transform="matrix(6.12323e-17 -1 1 6.12323e-17 4331.5 433.75)" fill="#7A49E3"/>
</g>
</g>
<g id="Polygon">
<use xlink:href="#path3_fill" transform="matrix(0 1 -1 0 4358.5 420.25)" fill="#FFFFFF"/>
<mask id="mask3_outline_out">
<rect id="mask3_outline_inv" fill="white" x="-3" y="-4" width="20" height="17" transform="matrix(0 1 -1 0 4358.5 420.25)"/>
<use xlink:href="#path3_fill" fill="black" transform="matrix(0 1 -1 0 4358.5 420.25)"/>
</mask>
<g mask="url(#mask3_outline_out)">
<use xlink:href="#path4_stroke_2x" transform="matrix(0 1 -1 0 4358.5 420.25)" fill="#FFFFFF"/>
</g>
</g>
<g id="Polygon">
<use xlink:href="#path3_fill" transform="matrix(0 1 -1 0 4358.5 420.25)" fill="#7A49E3" fill-opacity="0.3"/>
<mask id="mask4_outline_ins">
<use xlink:href="#path3_fill" fill="white" transform="matrix(0 1 -1 0 4358.5 420.25)"/>
</mask>
<g mask="url(#mask4_outline_ins)">
<use xlink:href="#path4_stroke_2x" transform="matrix(0 1 -1 0 4358.5 420.25)" fill="#7A49E3"/>
</g>
</g>
</g>
</g>
<defs>
<filter id="filter0_d" filterUnits="userSpaceOnUse" x="4301" y="387" width="88" height="88" color-interpolation-filters="sRGB">
<feFlood flood-opacity="0" result="BackgroundImageFix"/>
<feColorMatrix in="SourceAlpha" type="matrix" values="0 0 0 0 0 0 0 0 0 0 0 0 0 0 0 0 0 0 255 0"/>
<feOffset dx="0" dy="4"/>
<feGaussianBlur stdDeviation="7"/>
<feColorMatrix type="matrix" values="0 0 0 0 0 0 0 0 0 0 0 0 0 0 0 0 0 0 0.06 0"/>
<feBlend mode="normal" in2="BackgroundImageFix" result="effect1_dropShadow"/>
<feBlend mode="normal" in="SourceGraphic" in2="effect1_dropShadow" result="shape"/>
</filter>
<path id="path0_fill" d="M 30 0C 7.5 -2.40029e-05 0 7.49995 0 30C -2.40029e-05 52.5 7.49996 60 30 60C 52.5 60 60 52.5 60 30C 60 7.49995 52.5 0 30 0Z"/>
<path id="path1_fill" d="M 0 0L 22.5 0L 22.5 22.5L 0 22.5L 0 0Z"/>
<path id="path2_stroke_2x" d="M 0 0L 0 -2L -2 -2L -2 0L 0 0ZM 22.5 0L 24.5 0L 24.5 -2L 22.5 -2L 22.5 0ZM 22.5 22.5L 22.5 24.5L 24.5 24.5L 24.5 22.5L 22.5 22.5ZM 0 22.5L -2 22.5L -2 24.5L 0 24.5L 0 22.5ZM 0 2L 22.5 2L 22.5 -2L 0 -2L 0 2ZM 20.5 0L 20.5 22.5L 24.5 22.5L 24.5 0L 20.5 0ZM 22.5 20.5L 0 20.5L 0 24.5L 22.5 24.5L 22.5 20.5ZM 2 22.5L 2 0L -2 0L -2 22.5L 2 22.5Z"/>
<path id="path3_fill" d="M 6.75 0L 12.5957 10.125L 0.904329 10.125L 6.75 0Z"/>
<path id="path4_stroke_2x" d="M 6.75 0L 8.48205 -1L 6.75 -4L 5.01795 -1L 6.75 0ZM 12.5957 10.125L 12.5957 12.125L 16.0598 12.125L 14.3277 9.125L 12.5957 10.125ZM 0.904329 10.125L -0.827722 9.125L -2.55977 12.125L 0.904329 12.125L 0.904329 10.125ZM 5.01795 1L 10.8636 11.125L 14.3277 9.125L 8.48205 -1L 5.01795 1ZM 12.5957 8.125L 0.904329 8.125L 0.904329 12.125L 12.5957 12.125L 12.5957 8.125ZM 2.63638 11.125L 8.48205 1L 5.01795 -1L -0.827722 9.125L 2.63638 11.125Z"/>
</defs>
</svg>
