<svg width="32" height="32" viewBox="0 0 32 32" fill="none" xmlns="http://www.w3.org/2000/svg">
<path fill-rule="evenodd" clip-rule="evenodd" d="M19.8399 3.37015C22.7187 6.78236 24.4514 11.1854 24.4514 15.9999C24.4514 20.8145 22.7187 25.2175 19.8399 28.6297L23.8346 31.9999C27.479 27.6802 29.6778 22.0935 29.6778 15.9999C29.6778 9.90643 27.479 4.3197 23.8346 0L19.8399 3.37015ZM11.3857 9.46704C11.3857 11.6319 9.63076 13.3868 7.46593 13.3868C5.3011 13.3868 3.54615 11.6319 3.54615 9.46704C3.54615 7.30221 5.3011 5.54727 7.46593 5.54727C9.63076 5.54727 11.3857 7.30221 11.3857 9.46704ZM10.079 20.5731V25.7994C10.079 26.9399 9.77504 28.0352 9.01642 28.9835C8.33251 29.8383 7.43413 30.3702 6.6746 30.7499L4.3373 31.9186L2 27.244L4.3373 26.0753C4.59293 25.9475 4.75276 25.8509 4.85266 25.7802V20.5731H10.079Z" fill="black"/>
</svg>
