<svg width="40" height="40" viewBox="0 0 40 40" fill="none" xmlns="http://www.w3.org/2000/svg">
<path fill-rule="evenodd" clip-rule="evenodd" d="M24.0476 6.94081C26.9599 10.3928 28.7128 14.8471 28.7128 19.7177C28.7128 24.5883 26.9599 29.0427 24.0476 32.4947L28.0888 35.9041C31.7756 31.5341 34 25.8822 34 19.7177C34 13.5532 31.7756 7.90143 28.0888 3.5314L24.0476 6.94081ZM15.4951 13.1087C15.4951 15.2988 13.7197 17.0742 11.5296 17.0742C9.33958 17.0742 7.5642 15.2988 7.5642 13.1087C7.5642 10.9187 9.33958 9.14328 11.5296 9.14328C13.7197 9.14328 15.4951 10.9187 15.4951 13.1087ZM14.1731 24.3441V29.6314C14.1731 30.7852 13.8656 31.8932 13.0982 32.8525C12.4063 33.7173 11.4974 34.2553 10.7291 34.6395L8.36453 35.8218L6 31.0927L8.36453 29.9105C8.62314 29.7812 8.78483 29.6835 8.88589 29.6119V24.3441H14.1731Z" fill="#DBDBDB"/>
</svg>
