<svg xmlns="http://www.w3.org/2000/svg" viewBox="0 0 16 16" fill="none">

    <path fill="#000" d="M9.91999 1.68508C11.3594 3.39119 12.2257 5.59273 12.2257 8C12.2257 10.4073 11.3594 12.6088 9.91999 14.3149L11.9173 16C13.7395 13.8401 14.8389 11.0468 14.8389 8C14.8389 4.95323 13.7395 2.15986 11.9173 0L9.91999 1.68508ZM5.69286 4.73353C5.69286 5.81595 4.81538 6.69342 3.73296 6.69342C2.65055 6.69342 1.77307 5.81595 1.77307 4.73353C1.77307 3.65111 2.65055 2.77364 3.73296 2.77364C4.81538 2.77364 5.69286 3.65111 5.69286 4.73353ZM5.03952 10.2866V12.8998C5.03952 13.47 4.88753 14.0176 4.50822 14.4918C4.16626 14.9192 3.71707 15.1851 3.33731 15.375L2.16865 15.9593L1 13.622L2.16865 13.0377C2.29647 12.9738 2.37638 12.9255 2.42633 12.8901V10.2866H5.03952Z"/>
	
    <style>
        @media (prefers-color-scheme:dark){:root{filter:invert(100%)}}
    </style>

</svg>
