<svg width="24" height="24" viewBox="0 0 24 24" fill="none" xmlns="http://www.w3.org/2000/svg">
<path d="M9 14.625C9.62132 14.625 10.125 14.1213 10.125 13.5C10.125 12.8787 9.62132 12.375 9 12.375C8.37868 12.375 7.875 12.8787 7.875 13.5C7.875 14.1213 8.37868 14.625 9 14.625Z" fill="#171717"/>
<path d="M15 14.625C15.6213 14.625 16.125 14.1213 16.125 13.5C16.125 12.8787 15.6213 12.375 15 12.375C14.3787 12.375 13.875 12.8787 13.875 13.5C13.875 14.1213 14.3787 14.625 15 14.625Z" fill="#171717"/>
<path d="M6.97461 7.49999C8.60047 6.99043 10.2958 6.73739 11.9996 6.74999C13.7034 6.73739 15.3988 6.99043 17.0246 7.49999" stroke="#171717" stroke-width="2" stroke-linecap="round" stroke-linejoin="round"/>
<path d="M17.0246 16.5C15.3988 17.0096 13.7034 17.2626 11.9996 17.25C10.2958 17.2626 8.60047 17.0096 6.97461 16.5" stroke="#171717" stroke-width="2" stroke-linecap="round" stroke-linejoin="round"/>
<path d="M14.5316 17.0718L15.666 19.3218C15.739 19.4752 15.8631 19.5984 16.0171 19.6703C16.1711 19.7421 16.3453 19.7581 16.5098 19.7155C18.8066 19.153 20.7941 18.178 22.2379 16.9218C22.3467 16.8257 22.4258 16.7005 22.4657 16.5609C22.5055 16.4214 22.5046 16.2733 22.4629 16.1343L19.2848 5.52175C19.2538 5.41315 19.1979 5.31331 19.1213 5.23027C19.0448 5.14723 18.9499 5.0833 18.8441 5.04363C17.9462 4.67526 17.0177 4.38664 16.0691 4.18113C15.8869 4.14121 15.6963 4.1698 15.5337 4.26144C15.3712 4.35309 15.2481 4.50137 15.1879 4.678L14.4473 6.91863" stroke="#171717" stroke-width="2" stroke-linecap="round" stroke-linejoin="round"/>
<path d="M9.46909 17.0718L8.33472 19.3218C8.26173 19.4752 8.13758 19.5984 7.98361 19.6703C7.82964 19.7421 7.65545 19.7581 7.49097 19.7155C5.19409 19.153 3.20659 18.178 1.76284 16.9218C1.654 16.8257 1.57495 16.7005 1.53508 16.5609C1.4952 16.4214 1.49616 16.2733 1.53784 16.1343L4.71597 5.52175C4.7469 5.41315 4.80288 5.31331 4.8794 5.23027C4.95593 5.14723 5.05087 5.0833 5.15659 5.04363C6.05449 4.67526 6.98308 4.38664 7.93159 4.18113C8.11387 4.14121 8.30447 4.1698 8.46701 4.26144C8.62955 4.35309 8.75266 4.50137 8.81284 4.678L9.55347 6.91863" stroke="#171717" stroke-width="2" stroke-linecap="round" stroke-linejoin="round"/>
<path d="M9 14.625C9.62132 14.625 10.125 14.1213 10.125 13.5C10.125 12.8787 9.62132 12.375 9 12.375C8.37868 12.375 7.875 12.8787 7.875 13.5C7.875 14.1213 8.37868 14.625 9 14.625Z" fill="#171717"/>
<path d="M15 14.625C15.6213 14.625 16.125 14.1213 16.125 13.5C16.125 12.8787 15.6213 12.375 15 12.375C14.3787 12.375 13.875 12.8787 13.875 13.5C13.875 14.1213 14.3787 14.625 15 14.625Z" fill="#171717"/>
<path d="M6.97461 7.49999C8.60047 6.99043 10.2958 6.73739 11.9996 6.74999C13.7034 6.73739 15.3988 6.99043 17.0246 7.49999" stroke="#171717" stroke-width="2" stroke-linecap="round" stroke-linejoin="round"/>
<path d="M17.0246 16.5C15.3988 17.0096 13.7034 17.2626 11.9996 17.25C10.2958 17.2626 8.60047 17.0096 6.97461 16.5" stroke="#171717" stroke-width="2" stroke-linecap="round" stroke-linejoin="round"/>
<path d="M14.5316 17.0718L15.666 19.3218C15.739 19.4752 15.8631 19.5984 16.0171 19.6703C16.1711 19.7421 16.3453 19.7581 16.5098 19.7155C18.8066 19.153 20.7941 18.178 22.2379 16.9218C22.3467 16.8257 22.4258 16.7005 22.4657 16.5609C22.5055 16.4214 22.5046 16.2733 22.4629 16.1343L19.2848 5.52175C19.2538 5.41315 19.1979 5.31331 19.1213 5.23027C19.0448 5.14723 18.9499 5.0833 18.8441 5.04363C17.9462 4.67526 17.0177 4.38664 16.0691 4.18113C15.8869 4.14121 15.6963 4.1698 15.5337 4.26144C15.3712 4.35309 15.2481 4.50137 15.1879 4.678L14.4473 6.91863" stroke="#171717" stroke-width="2" stroke-linecap="round" stroke-linejoin="round"/>
<path d="M9.46909 17.0718L8.33472 19.3218C8.26173 19.4752 8.13758 19.5984 7.98361 19.6703C7.82964 19.7421 7.65545 19.7581 7.49097 19.7155C5.19409 19.153 3.20659 18.178 1.76284 16.9218C1.654 16.8257 1.57495 16.7005 1.53508 16.5609C1.4952 16.4214 1.49616 16.2733 1.53784 16.1343L4.71597 5.52175C4.7469 5.41315 4.80288 5.31331 4.8794 5.23027C4.95593 5.14723 5.05087 5.0833 5.15659 5.04363C6.05449 4.67526 6.98308 4.38664 7.93159 4.18113C8.11387 4.14121 8.30447 4.1698 8.46701 4.26144C8.62955 4.35309 8.75266 4.50137 8.81284 4.678L9.55347 6.91863" stroke="#171717" stroke-width="2" stroke-linecap="round" stroke-linejoin="round"/>
</svg>
