<svg id="email" width="24" height="24" viewBox="0 0 24 24" fill="none" xmlns="http://www.w3.org/2000/svg">
    <path d="M19.7157 3.3656L2.24068 8.28747C2.09193 8.32814 1.95932 8.41368 1.86094 8.53243C1.76255 8.65119 1.70316 8.79738 1.69087 8.95111C1.67857 9.10483 1.71396 9.25861 1.79221 9.3915C1.87047 9.52438 1.98779 9.62992 2.12818 9.69372L10.1532 13.4906C10.3104 13.5634 10.4366 13.6896 10.5094 13.8468L14.3063 21.8718C14.3701 22.0122 14.4756 22.1296 14.6085 22.2078C14.7414 22.2861 14.8952 22.3215 15.0489 22.3092C15.2026 22.2969 15.3488 22.2375 15.4676 22.1391C15.5864 22.0407 15.6719 21.9081 15.7126 21.7593L20.6344 4.28435C20.6717 4.15682 20.674 4.02162 20.6411 3.8929C20.6082 3.76418 20.5412 3.64669 20.4473 3.55274C20.3533 3.45879 20.2359 3.39184 20.1071 3.35892C19.9784 3.32599 19.8432 3.3283 19.7157 3.3656V3.3656Z" stroke="#171717" stroke-width="2" stroke-linecap="round" stroke-linejoin="round"/>
    <path d="M10.3965 13.6033L14.634 9.36575" stroke="currentColor" stroke-width="2" stroke-linecap="round" stroke-linejoin="round"/>
</svg>
