<svg width="24" height="24" viewBox="0 0 24 24" fill="none" xmlns="http://www.w3.org/2000/svg">
<path d="M11.9995 8.24997C11.9995 6.18747 13.7339 4.47185 15.7964 4.49997C16.5187 4.50831 17.2232 4.72509 17.8253 5.12423C18.4273 5.52338 18.9013 6.08792 19.1902 6.74997H22.4995L19.4714 9.7781C19.276 12.8199 17.9295 15.6731 15.7056 17.7576C13.4818 19.8421 10.5476 21.0015 7.49953 21C4.49953 21 3.74953 19.875 3.74953 19.875C3.74953 19.875 6.74953 18.75 8.24953 16.5C8.24953 16.5 2.24953 13.5 3.74953 5.24997C3.74953 5.24997 7.49953 8.99997 11.9995 9.74997V8.24997Z" stroke="#171717" stroke-width="2" stroke-linecap="round" stroke-linejoin="round"/>
</svg>
